<svg width="270" height="228" viewBox="0 0 270 228" fill="none" xmlns="http://www.w3.org/2000/svg">
<path d="M29.176 1.016C28.952 4.024 28.84 6.712 28.84 9.08C28.84 10.552 28.888 11.704 28.984 12.536H27.88C27.112 8.824 25.928 6.168 24.328 4.568C22.76 2.936 21 2.12 19.048 2.12H18.424C17.56 2.12 16.92 2.2 16.504 2.36C16.12 2.488 15.848 2.76 15.688 3.176C15.56 3.56 15.496 4.216 15.496 5.144V17.432H15.976C17.64 17.432 19.064 16.776 20.248 15.464C21.432 14.152 22.184 12.696 22.504 11.096H23.608C23.512 12.44 23.464 13.944 23.464 15.608V17.912C23.464 19.544 23.56 21.816 23.752 24.728H22.648C22.36 22.904 21.608 21.4 20.392 20.216C19.208 19 17.736 18.392 15.976 18.392H15.496V29.432C15.496 30.776 15.624 31.752 15.88 32.36C16.168 32.968 16.664 33.384 17.368 33.608C18.104 33.8 19.256 33.896 20.824 33.896V35C16.504 34.904 13.208 34.856 10.936 34.856C9.432 34.856 7.336 34.888 4.648 34.952L2.344 35V34.04C3.368 33.976 4.104 33.848 4.552 33.656C5.032 33.464 5.352 33.096 5.512 32.552C5.672 32.008 5.752 31.128 5.752 29.912V6.104C5.752 4.888 5.656 4.008 5.464 3.464C5.304 2.92 5 2.552 4.552 2.36C4.104 2.168 3.368 2.04 2.344 1.976V1.016C6.056 1.112 11.656 1.16 19.144 1.16C23.848 1.16 27.192 1.112 29.176 1.016ZM48.1071 1.976C47.0831 2.04 46.3311 2.168 45.8511 2.36C45.4031 2.552 45.0991 2.92 44.9391 3.464C44.7791 4.008 44.6991 4.888 44.6991 6.104V29.912C44.6991 31.128 44.7791 32.008 44.9391 32.552C45.1311 33.096 45.4511 33.464 45.8991 33.656C46.3471 33.848 47.0831 33.976 48.1071 34.04V35C46.2511 34.904 43.5791 34.856 40.0911 34.856C36.2191 34.856 33.3711 34.904 31.5471 35V34.04C32.5711 33.976 33.3071 33.848 33.7551 33.656C34.2351 33.464 34.5551 33.096 34.7151 32.552C34.8751 32.008 34.9551 31.128 34.9551 29.912V6.104C34.9551 4.888 34.8591 4.008 34.6671 3.464C34.5071 2.92 34.2031 2.552 33.7551 2.36C33.3071 2.168 32.5711 2.04 31.5471 1.976V1.016C33.3711 1.112 36.2191 1.16 40.0911 1.16C43.5471 1.16 46.2191 1.112 48.1071 1.016V1.976ZM83.4528 1.976C82.4608 2.2 81.7248 2.552 81.2448 3.032C80.7648 3.48 80.4448 4.184 80.2848 5.144C80.1248 6.104 80.0448 7.544 80.0448 9.464V35C79.4048 34.936 78.8768 34.904 78.4608 34.904C78.1088 34.904 77.5168 34.936 76.6848 35L55.4208 11.768V25.592C55.4208 27.96 55.5168 29.672 55.7088 30.728C55.9008 31.752 56.3168 32.504 56.9568 32.984C57.6288 33.464 58.7328 33.816 60.2688 34.04V35C58.9568 34.904 57.1648 34.856 54.8928 34.856C53.1968 34.856 51.8688 34.904 50.9088 35V34.04C51.9008 33.816 52.6368 33.48 53.1168 33.032C53.5968 32.552 53.9168 31.832 54.0768 30.872C54.2368 29.912 54.3168 28.472 54.3168 26.552V6.104C54.3168 4.888 54.2208 4.008 54.0288 3.464C53.8688 2.92 53.5648 2.552 53.1168 2.36C52.6688 2.168 51.9328 2.04 50.9088 1.976V1.016C51.8688 1.112 53.1968 1.16 54.8928 1.16C56.6208 1.16 58.0928 1.112 59.3088 1.016L78.9408 21.752V10.424C78.9408 8.056 78.8448 6.36 78.6528 5.336C78.4608 4.28 78.0288 3.512 77.3568 3.032C76.7168 2.552 75.6288 2.2 74.0928 1.976V1.016C75.4048 1.112 77.1968 1.16 79.4688 1.16C81.1648 1.16 82.4928 1.112 83.4528 1.016V1.976ZM101.953 1.016C108.577 1.016 113.537 2.44 116.833 5.288C120.129 8.104 121.777 12.216 121.777 17.624C121.777 21.112 120.961 24.168 119.329 26.792C117.729 29.384 115.409 31.4 112.369 32.84C109.329 34.28 105.713 35 101.521 35L98.545 34.952C96.625 34.888 95.217 34.856 94.321 34.856C90.577 34.856 87.793 34.904 85.969 35V34.04C86.993 33.976 87.729 33.848 88.177 33.656C88.657 33.464 88.977 33.096 89.137 32.552C89.297 32.008 89.377 31.128 89.377 29.912V6.104C89.377 4.888 89.281 4.008 89.089 3.464C88.929 2.92 88.625 2.552 88.177 2.36C87.729 2.168 86.993 2.04 85.969 1.976V1.016C87.441 1.112 89.617 1.16 92.497 1.16H94.225L96.337 1.112C99.025 1.048 100.897 1.016 101.953 1.016ZM102.673 1.88C101.681 1.88 100.929 1.992 100.417 2.216C99.937 2.44 99.601 2.84 99.409 3.416C99.217 3.992 99.121 4.856 99.121 6.008V30.008C99.121 31.16 99.217 32.024 99.409 32.6C99.601 33.176 99.937 33.576 100.417 33.8C100.929 34.024 101.697 34.136 102.721 34.136C105.889 34.136 108.177 32.776 109.585 30.056C110.993 27.304 111.697 23.224 111.697 17.816C111.697 12.408 110.961 8.408 109.489 5.816C108.049 3.192 105.777 1.88 102.673 1.88ZM159.176 1.112C160.68 1.112 161.912 1.064 162.872 0.967998V1.928C161.24 2.728 159.544 4.856 157.784 8.312L153.32 17.144V29.912C153.32 31.128 153.4 32.008 153.56 32.552C153.752 33.096 154.072 33.464 154.52 33.656C154.968 33.848 155.704 33.976 156.728 34.04V35C154.872 34.904 152.12 34.856 148.472 34.856C144.664 34.856 141.896 34.904 140.168 35V34.04C141.192 33.976 141.928 33.848 142.376 33.656C142.856 33.464 143.176 33.096 143.336 32.552C143.496 32.008 143.576 31.128 143.576 29.912V21.08L134.696 4.664C134.184 3.736 133.688 3.064 133.208 2.648C132.728 2.2 132.296 1.976 131.912 1.976V0.967998C133.896 1.16 136.104 1.256 138.536 1.256C141.288 1.256 144.808 1.16 149.096 0.967998V1.976C147.816 1.976 146.856 2.04 146.216 2.168C145.576 2.296 145.256 2.6 145.256 3.08C145.256 3.304 145.32 3.544 145.448 3.8L152.312 16.952L154.472 12.632C155.976 9.624 156.728 7.24 156.728 5.48C156.728 3.208 155.448 2.024 152.888 1.928V0.967998C155.288 1.064 157.384 1.112 159.176 1.112ZM180.716 0.343997C184.332 0.343997 187.5 1.032 190.22 2.408C192.94 3.784 195.052 5.784 196.556 8.408C198.06 11 198.812 14.104 198.812 17.72C198.812 21.24 198.044 24.36 196.508 27.08C194.972 29.8 192.828 31.912 190.076 33.416C187.324 34.92 184.188 35.672 180.668 35.672C177.052 35.672 173.884 34.984 171.164 33.608C168.444 32.232 166.332 30.248 164.828 27.656C163.324 25.032 162.572 21.912 162.572 18.296C162.572 14.776 163.34 11.656 164.876 8.936C166.412 6.216 168.556 4.104 171.308 2.6C174.06 1.096 177.196 0.343997 180.716 0.343997ZM180.524 1.208C178.956 1.208 177.564 1.928 176.348 3.368C175.164 4.776 174.252 6.76 173.612 9.32C172.972 11.88 172.652 14.808 172.652 18.104C172.652 21.432 173.02 24.36 173.756 26.888C174.492 29.416 175.484 31.368 176.732 32.744C177.98 34.12 179.356 34.808 180.86 34.808C182.428 34.808 183.804 34.104 184.988 32.696C186.204 31.256 187.132 29.256 187.772 26.696C188.412 24.136 188.732 21.208 188.732 17.912C188.732 14.584 188.364 11.656 187.628 9.128C186.892 6.6 185.9 4.648 184.652 3.272C183.404 1.896 182.028 1.208 180.524 1.208ZM233.001 1.976C232.009 2.2 231.273 2.552 230.793 3.032C230.313 3.48 229.993 4.184 229.833 5.144C229.673 6.104 229.593 7.544 229.593 9.464V21.032C229.593 25.64 228.937 29.032 227.625 31.208C226.761 32.648 225.481 33.752 223.785 34.52C222.121 35.288 219.961 35.672 217.305 35.672C213.433 35.672 210.425 34.904 208.281 33.368C206.713 32.248 205.657 30.744 205.113 28.856C204.601 26.968 204.345 24.408 204.345 21.176V6.104C204.345 4.888 204.265 4.008 204.105 3.464C203.945 2.92 203.625 2.552 203.145 2.36C202.697 2.168 201.961 2.04 200.937 1.976V1.016C202.761 1.112 205.577 1.16 209.385 1.16C213.161 1.16 216.025 1.112 217.977 1.016V1.976C216.825 2.04 215.977 2.168 215.433 2.36C214.921 2.552 214.569 2.92 214.377 3.464C214.185 4.008 214.089 4.888 214.089 6.104V25.688C214.089 28.76 214.569 30.92 215.529 32.168C216.489 33.384 218.009 33.992 220.089 33.992C223.129 33.992 225.289 32.92 226.569 30.776C227.849 28.6 228.489 25.528 228.489 21.56V10.424C228.489 8.056 228.393 6.36 228.201 5.336C228.009 4.28 227.577 3.512 226.905 3.032C226.265 2.552 225.177 2.2 223.641 1.976V1.016C224.953 1.112 226.745 1.16 229.017 1.16C230.713 1.16 232.041 1.112 233.001 1.016V1.976ZM269.402 33.08C268.442 34.04 267.386 34.712 266.234 35.096C265.082 35.48 263.738 35.672 262.202 35.672C259.994 35.672 258.282 35.288 257.066 34.52C255.85 33.72 255.098 32.376 254.81 30.488L254.09 25.688C253.77 23.448 253.322 21.752 252.746 20.6C252.202 19.448 251.37 18.872 250.25 18.872H248.09V29.912C248.09 31.128 248.17 32.008 248.33 32.552C248.522 33.096 248.842 33.464 249.29 33.656C249.738 33.848 250.474 33.976 251.498 34.04V35C249.642 34.904 246.97 34.856 243.482 34.856C239.61 34.856 236.762 34.904 234.938 35V34.04C235.962 33.976 236.698 33.848 237.146 33.656C237.626 33.464 237.946 33.096 238.106 32.552C238.266 32.008 238.346 31.128 238.346 29.912V6.104C238.346 4.888 238.25 4.008 238.058 3.464C237.898 2.92 237.594 2.552 237.146 2.36C236.698 2.168 235.962 2.04 234.938 1.976V1.016C236.762 1.112 239.514 1.16 243.194 1.16L248.714 1.112C249.354 1.08 250.09 1.064 250.922 1.064C255.786 1.064 259.402 1.752 261.77 3.128C264.17 4.504 265.37 6.6 265.37 9.416C265.37 11.816 264.474 13.864 262.682 15.56C260.89 17.256 257.882 18.296 253.658 18.68C256.922 18.904 259.386 19.528 261.05 20.552C262.714 21.544 263.738 23.016 264.122 24.968L265.13 29.96C265.354 31.144 265.626 31.96 265.946 32.408C266.266 32.856 266.714 33.08 267.29 33.08C267.866 33.08 268.362 32.872 268.778 32.456L269.402 33.08ZM250.682 1.976C249.946 1.976 249.386 2.088 249.002 2.312C248.65 2.536 248.41 2.936 248.282 3.512C248.154 4.088 248.09 4.952 248.09 6.104V17.912H249.386C251.658 17.912 253.21 17.224 254.042 15.848C254.874 14.44 255.29 12.472 255.29 9.944C255.29 7.32 254.922 5.336 254.186 3.992C253.482 2.648 252.314 1.976 250.682 1.976ZM18.328 65.016C24.952 65.016 29.912 66.44 33.208 69.288C36.504 72.104 38.152 76.216 38.152 81.624C38.152 85.112 37.336 88.168 35.704 90.792C34.104 93.384 31.784 95.4 28.744 96.84C25.704 98.28 22.088 99 17.896 99L14.92 98.952C13 98.888 11.592 98.856 10.696 98.856C6.952 98.856 4.168 98.904 2.344 99V98.04C3.368 97.976 4.104 97.848 4.552 97.656C5.032 97.464 5.352 97.096 5.512 96.552C5.672 96.008 5.752 95.128 5.752 93.912V70.104C5.752 68.888 5.656 68.008 5.464 67.464C5.304 66.92 5 66.552 4.552 66.36C4.104 66.168 3.368 66.04 2.344 65.976V65.016C3.816 65.112 5.992 65.16 8.872 65.16H10.6L12.712 65.112C15.4 65.048 17.272 65.016 18.328 65.016ZM19.048 65.88C18.056 65.88 17.304 65.992 16.792 66.216C16.312 66.44 15.976 66.84 15.784 67.416C15.592 67.992 15.496 68.856 15.496 70.008V94.008C15.496 95.16 15.592 96.024 15.784 96.6C15.976 97.176 16.312 97.576 16.792 97.8C17.304 98.024 18.072 98.136 19.096 98.136C22.264 98.136 24.552 96.776 25.96 94.056C27.368 91.304 28.072 87.224 28.072 81.816C28.072 76.408 27.336 72.408 25.864 69.816C24.424 67.192 22.152 65.88 19.048 65.88ZM75.2924 97.08C74.3324 98.04 73.2764 98.712 72.1244 99.096C70.9724 99.48 69.6284 99.672 68.0924 99.672C65.8844 99.672 64.1724 99.288 62.9564 98.52C61.7404 97.72 60.9884 96.376 60.7004 94.488L59.9804 89.688C59.6604 87.448 59.2124 85.752 58.6364 84.6C58.0924 83.448 57.2604 82.872 56.1404 82.872H53.9804V93.912C53.9804 95.128 54.0604 96.008 54.2204 96.552C54.4124 97.096 54.7324 97.464 55.1804 97.656C55.6284 97.848 56.3644 97.976 57.3884 98.04V99C55.5324 98.904 52.8604 98.856 49.3724 98.856C45.5004 98.856 42.6524 98.904 40.8284 99V98.04C41.8524 97.976 42.5884 97.848 43.0364 97.656C43.5164 97.464 43.8364 97.096 43.9964 96.552C44.1564 96.008 44.2364 95.128 44.2364 93.912V70.104C44.2364 68.888 44.1404 68.008 43.9484 67.464C43.7884 66.92 43.4844 66.552 43.0364 66.36C42.5884 66.168 41.8524 66.04 40.8284 65.976V65.016C42.6524 65.112 45.4044 65.16 49.0844 65.16L54.6044 65.112C55.2444 65.08 55.9804 65.064 56.8124 65.064C61.6764 65.064 65.2924 65.752 67.6604 67.128C70.0604 68.504 71.2604 70.6 71.2604 73.416C71.2604 75.816 70.3644 77.864 68.5724 79.56C66.7804 81.256 63.7724 82.296 59.5484 82.68C62.8124 82.904 65.2764 83.528 66.9404 84.552C68.6044 85.544 69.6284 87.016 70.0124 88.968L71.0204 93.96C71.2444 95.144 71.5164 95.96 71.8364 96.408C72.1564 96.856 72.6044 97.08 73.1804 97.08C73.7564 97.08 74.2524 96.872 74.6684 96.456L75.2924 97.08ZM56.5724 65.976C55.8364 65.976 55.2764 66.088 54.8924 66.312C54.5404 66.536 54.3004 66.936 54.1724 67.512C54.0444 68.088 53.9804 68.952 53.9804 70.104V81.912H55.2764C57.5484 81.912 59.1004 81.224 59.9324 79.848C60.7644 78.44 61.1804 76.472 61.1804 73.944C61.1804 71.32 60.8124 69.336 60.0764 67.992C59.3724 66.648 58.2044 65.976 56.5724 65.976ZM102.878 90.936C102.878 94.2 102.99 96.888 103.214 99C101.038 98.904 97.3741 98.856 92.2221 98.856C84.7341 98.856 79.1341 98.904 75.4221 99V98.04C76.4461 97.976 77.1821 97.848 77.6301 97.656C78.1101 97.464 78.4301 97.096 78.5901 96.552C78.7501 96.008 78.8301 95.128 78.8301 93.912V70.104C78.8301 68.888 78.7341 68.008 78.5421 67.464C78.3821 66.92 78.0781 66.552 77.6301 66.36C77.1821 66.168 76.4461 66.04 75.4221 65.976V65.016C79.1341 65.112 84.7341 65.16 92.2221 65.16C96.9261 65.16 100.27 65.112 102.254 65.016C102.03 68.024 101.918 70.712 101.918 73.08C101.918 74.552 101.966 75.704 102.062 76.536H100.958C100.382 72.824 99.3101 70.168 97.7421 68.568C96.1741 66.936 94.3021 66.12 92.1261 66.12H91.5021C90.6381 66.12 89.9981 66.2 89.5821 66.36C89.1981 66.488 88.9261 66.76 88.7661 67.176C88.6381 67.56 88.5741 68.216 88.5741 69.144V81.432H89.0541C90.7181 81.432 92.1421 80.776 93.3261 79.464C94.5101 78.152 95.2621 76.696 95.5821 75.096H96.6861C96.5901 76.44 96.5421 77.944 96.5421 79.608V81.912C96.5421 83.544 96.6381 85.816 96.8301 88.728H95.7261C95.4381 86.904 94.6861 85.4 93.4701 84.216C92.2861 83 90.8141 82.392 89.0541 82.392H88.5741V94.872C88.5741 95.8 88.6381 96.472 88.7661 96.888C88.9261 97.272 89.1981 97.544 89.5821 97.704C89.9981 97.832 90.6381 97.896 91.5021 97.896H93.0861C94.9421 97.896 96.7021 97 98.3661 95.208C100.03 93.384 101.214 90.488 101.918 86.52H103.022C102.926 87.672 102.878 89.144 102.878 90.936ZM136.017 94.968C136.433 95.992 136.881 96.76 137.361 97.272C137.873 97.752 138.369 98.008 138.849 98.04V99C136.545 98.904 133.633 98.856 130.113 98.856C126.465 98.856 123.777 98.904 122.049 99V98.04C123.265 97.976 124.129 97.832 124.641 97.608C125.153 97.352 125.409 96.92 125.409 96.312C125.409 95.736 125.217 94.968 124.833 94.008L122.001 86.136H112.305L111.489 88.296C110.433 91.016 109.905 93.096 109.905 94.536C109.905 95.848 110.273 96.744 111.009 97.224C111.745 97.704 112.833 97.976 114.273 98.04V99C111.873 98.904 109.777 98.856 107.985 98.856C106.481 98.856 105.249 98.904 104.289 99V98.04C105.089 97.912 105.841 97.416 106.545 96.552C107.249 95.688 107.969 94.312 108.705 92.424L119.361 65.016C120.385 65.08 121.233 65.112 121.905 65.112C122.545 65.112 123.377 65.08 124.401 65.016L136.017 94.968ZM121.665 85.176L117.297 73.176L112.689 85.176H121.665ZM182.57 65.976C181.546 66.04 180.794 66.168 180.314 66.36C179.866 66.552 179.562 66.92 179.402 67.464C179.242 68.008 179.162 68.888 179.162 70.104V93.912C179.162 95.128 179.242 96.008 179.402 96.552C179.594 97.096 179.914 97.464 180.362 97.656C180.81 97.848 181.546 97.976 182.57 98.04V99C180.618 98.904 177.786 98.856 174.074 98.856C170.202 98.856 167.354 98.904 165.53 99V98.04C166.682 97.976 167.514 97.848 168.026 97.656C168.57 97.464 168.938 97.096 169.13 96.552C169.322 96.008 169.418 95.128 169.418 93.912V69.384L157.85 98.952H157.082L143.546 68.136V89.592C143.546 91.96 143.642 93.672 143.834 94.728C144.026 95.752 144.442 96.504 145.082 96.984C145.754 97.464 146.858 97.816 148.394 98.04V99C147.082 98.904 145.29 98.856 143.018 98.856C141.322 98.856 139.994 98.904 139.034 99V98.04C140.026 97.816 140.762 97.48 141.242 97.032C141.722 96.552 142.042 95.832 142.202 94.872C142.362 93.912 142.442 92.472 142.442 90.552V70.104C142.442 68.888 142.346 68.008 142.154 67.464C141.994 66.92 141.69 66.552 141.242 66.36C140.794 66.168 140.058 66.04 139.034 65.976V65.016C139.994 65.112 141.322 65.16 143.018 65.16C146.858 65.16 150.17 65.112 152.954 65.016L162.026 85.416L169.898 65.16H174.074C177.786 65.16 180.618 65.112 182.57 65.016V65.976ZM39.448 129.976C38.424 130.04 37.672 130.168 37.192 130.36C36.744 130.552 36.44 130.92 36.28 131.464C36.12 132.008 36.04 132.888 36.04 134.104V157.912C36.04 159.128 36.12 160.008 36.28 160.552C36.472 161.096 36.792 161.464 37.24 161.656C37.688 161.848 38.424 161.976 39.448 162.04V163C37.72 162.904 35.032 162.856 31.384 162.856C27.704 162.856 24.872 162.904 22.888 163V162.04C23.912 161.976 24.648 161.848 25.096 161.656C25.576 161.464 25.896 161.096 26.056 160.552C26.216 160.008 26.296 159.128 26.296 157.912V146.392H15.496V157.912C15.496 159.128 15.576 160.008 15.736 160.552C15.928 161.096 16.248 161.464 16.696 161.656C17.144 161.848 17.88 161.976 18.904 162.04V163C17.048 162.904 14.376 162.856 10.888 162.856C7.016 162.856 4.168 162.904 2.344 163V162.04C3.368 161.976 4.104 161.848 4.552 161.656C5.032 161.464 5.352 161.096 5.512 160.552C5.672 160.008 5.752 159.128 5.752 157.912V134.104C5.752 132.888 5.656 132.008 5.464 131.464C5.304 130.92 5 130.552 4.552 130.36C4.104 130.168 3.368 130.04 2.344 129.976V129.016C4.168 129.112 7.016 129.16 10.888 129.16C14.344 129.16 17.016 129.112 18.904 129.016V129.976C17.88 130.04 17.128 130.168 16.648 130.36C16.2 130.552 15.896 130.92 15.736 131.464C15.576 132.008 15.496 132.888 15.496 134.104V145.432H26.296V134.104C26.296 132.888 26.2 132.008 26.008 131.464C25.848 130.92 25.544 130.552 25.096 130.36C24.648 130.168 23.912 130.04 22.888 129.976V129.016C24.872 129.112 27.704 129.16 31.384 129.16C35.032 129.16 37.72 129.112 39.448 129.016V129.976ZM60.2939 128.344C63.9099 128.344 67.0779 129.032 69.7979 130.408C72.5179 131.784 74.6299 133.784 76.1339 136.408C77.6379 139 78.3899 142.104 78.3899 145.72C78.3899 149.24 77.6219 152.36 76.0859 155.08C74.5499 157.8 72.4059 159.912 69.6539 161.416C66.9019 162.92 63.7659 163.672 60.2459 163.672C56.6299 163.672 53.4619 162.984 50.7419 161.608C48.0219 160.232 45.9099 158.248 44.4059 155.656C42.9019 153.032 42.1499 149.912 42.1499 146.296C42.1499 142.776 42.9179 139.656 44.4539 136.936C45.9899 134.216 48.1339 132.104 50.8859 130.6C53.6379 129.096 56.7739 128.344 60.2939 128.344ZM60.1019 129.208C58.5339 129.208 57.1419 129.928 55.9259 131.368C54.7419 132.776 53.8299 134.76 53.1899 137.32C52.5499 139.88 52.2299 142.808 52.2299 146.104C52.2299 149.432 52.5979 152.36 53.3339 154.888C54.0699 157.416 55.0619 159.368 56.3099 160.744C57.5579 162.12 58.9339 162.808 60.4379 162.808C62.0059 162.808 63.3819 162.104 64.5659 160.696C65.7819 159.256 66.7099 157.256 67.3499 154.696C67.9899 152.136 68.3099 149.208 68.3099 145.912C68.3099 142.584 67.9419 139.656 67.2059 137.128C66.4699 134.6 65.4779 132.648 64.2299 131.272C62.9819 129.896 61.6059 129.208 60.1019 129.208ZM124.726 129.976C123.702 130.04 122.95 130.168 122.47 130.36C122.022 130.552 121.718 130.92 121.558 131.464C121.398 132.008 121.318 132.888 121.318 134.104V157.912C121.318 159.128 121.398 160.008 121.558 160.552C121.75 161.096 122.07 161.464 122.518 161.656C122.966 161.848 123.702 161.976 124.726 162.04V163C122.774 162.904 119.942 162.856 116.23 162.856C112.358 162.856 109.51 162.904 107.686 163V162.04C108.838 161.976 109.67 161.848 110.182 161.656C110.726 161.464 111.094 161.096 111.286 160.552C111.478 160.008 111.574 159.128 111.574 157.912V133.384L100.006 162.952H99.238L85.702 132.136V153.592C85.702 155.96 85.798 157.672 85.99 158.728C86.182 159.752 86.598 160.504 87.238 160.984C87.91 161.464 89.014 161.816 90.55 162.04V163C89.238 162.904 87.446 162.856 85.174 162.856C83.478 162.856 82.15 162.904 81.19 163V162.04C82.182 161.816 82.918 161.48 83.398 161.032C83.878 160.552 84.198 159.832 84.358 158.872C84.518 157.912 84.598 156.472 84.598 154.552V134.104C84.598 132.888 84.502 132.008 84.31 131.464C84.15 130.92 83.846 130.552 83.398 130.36C82.95 130.168 82.214 130.04 81.19 129.976V129.016C82.15 129.112 83.478 129.16 85.174 129.16C89.014 129.16 92.326 129.112 95.11 129.016L104.182 149.416L112.054 129.16H116.23C119.942 129.16 122.774 129.112 124.726 129.016V129.976ZM154.863 154.936C154.863 158.2 154.975 160.888 155.199 163C153.023 162.904 149.359 162.856 144.207 162.856C136.719 162.856 131.119 162.904 127.407 163V162.04C128.431 161.976 129.167 161.848 129.615 161.656C130.095 161.464 130.415 161.096 130.575 160.552C130.735 160.008 130.815 159.128 130.815 157.912V134.104C130.815 132.888 130.719 132.008 130.527 131.464C130.367 130.92 130.063 130.552 129.615 130.36C129.167 130.168 128.431 130.04 127.407 129.976V129.016C131.119 129.112 136.719 129.16 144.207 129.16C148.911 129.16 152.255 129.112 154.239 129.016C154.015 132.024 153.903 134.712 153.903 137.08C153.903 138.552 153.951 139.704 154.047 140.536H152.943C152.367 136.824 151.295 134.168 149.727 132.568C148.159 130.936 146.287 130.12 144.111 130.12H143.487C142.623 130.12 141.983 130.2 141.567 130.36C141.183 130.488 140.911 130.76 140.751 131.176C140.623 131.56 140.559 132.216 140.559 133.144V145.432H141.039C142.703 145.432 144.127 144.776 145.311 143.464C146.495 142.152 147.247 140.696 147.567 139.096H148.671C148.575 140.44 148.527 141.944 148.527 143.608V145.912C148.527 147.544 148.623 149.816 148.815 152.728H147.711C147.423 150.904 146.671 149.4 145.455 148.216C144.271 147 142.799 146.392 141.039 146.392H140.559V158.872C140.559 159.8 140.623 160.472 140.751 160.888C140.911 161.272 141.183 161.544 141.567 161.704C141.983 161.832 142.623 161.896 143.487 161.896H145.071C146.927 161.896 148.687 161 150.351 159.208C152.015 157.384 153.199 154.488 153.903 150.52H155.007C154.911 151.672 154.863 153.144 154.863 154.936ZM46.168 193.16C47.672 193.16 48.904 193.112 49.864 193.016V193.976C47.976 194.904 46.488 197.144 45.4 200.696L37.336 227C36.312 226.936 35.464 226.904 34.792 226.904C34.152 226.904 33.32 226.936 32.296 227L26.056 207.944L19.288 227C18.264 226.936 17.416 226.904 16.744 226.904C16.104 226.904 15.272 226.936 14.248 227L3.112 197.048C2.728 196.024 2.28 195.272 1.768 194.792C1.256 194.28 0.76 194.008 0.28 193.976V193.016C2.584 193.112 5.416 193.16 8.776 193.16C11.688 193.16 13.816 193.112 15.16 193.016V193.976C14.296 194.136 13.864 194.776 13.864 195.896C13.864 196.568 14.008 197.272 14.296 198.008L21.256 217.592L25.48 206.168L22.216 196.232C21.96 195.432 21.64 194.872 21.256 194.552C20.872 194.232 20.376 194.04 19.768 193.976V193.016C21.912 193.112 24.68 193.16 28.072 193.16C31.4 193.16 33.88 193.112 35.512 193.016V193.976C34.36 194.008 33.528 194.152 33.016 194.408C32.504 194.664 32.248 195.128 32.248 195.8C32.248 196.408 32.408 197.144 32.728 198.008L39.064 217.256L42.76 205.4C43.624 202.552 44.056 200.312 44.056 198.68C44.056 197.08 43.688 195.912 42.952 195.176C42.248 194.44 41.224 194.04 39.88 193.976V193.016C42.28 193.112 44.376 193.16 46.168 193.16ZM67.3728 193.976C66.3488 194.04 65.5968 194.168 65.1168 194.36C64.6688 194.552 64.3648 194.92 64.2048 195.464C64.0448 196.008 63.9648 196.888 63.9648 198.104V221.912C63.9648 223.128 64.0448 224.008 64.2048 224.552C64.3968 225.096 64.7168 225.464 65.1648 225.656C65.6128 225.848 66.3488 225.976 67.3728 226.04V227C65.5168 226.904 62.8448 226.856 59.3568 226.856C55.4848 226.856 52.6368 226.904 50.8128 227V226.04C51.8368 225.976 52.5728 225.848 53.0208 225.656C53.5008 225.464 53.8208 225.096 53.9808 224.552C54.1408 224.008 54.2208 223.128 54.2208 221.912V198.104C54.2208 196.888 54.1248 196.008 53.9328 195.464C53.7728 194.92 53.4688 194.552 53.0208 194.36C52.5728 194.168 51.8368 194.04 50.8128 193.976V193.016C52.6368 193.112 55.4848 193.16 59.3568 193.16C62.8128 193.16 65.4848 193.112 67.3728 193.016V193.976ZM101.182 193.016C100.958 196.568 100.846 199.736 100.846 202.52C100.846 203.992 100.894 205.144 100.99 205.976H99.8864C98.8304 201.784 97.4704 198.76 95.8064 196.904C94.1424 195.048 92.3504 194.12 90.4304 194.12H90.3824V221.576C90.3824 222.92 90.5104 223.896 90.7664 224.504C91.0544 225.112 91.5504 225.528 92.2544 225.752C92.9904 225.944 94.1424 226.04 95.7104 226.04V227C91.1984 226.904 87.6944 226.856 85.1984 226.856C82.9264 226.856 79.6304 226.904 75.3104 227V226.04C76.8784 226.04 78.0144 225.944 78.7184 225.752C79.4544 225.528 79.9504 225.112 80.2064 224.504C80.4944 223.896 80.6384 222.92 80.6384 221.576V194.12H80.5904C78.6384 194.12 76.8304 195.048 75.1664 196.904C73.5344 198.728 72.1904 201.752 71.1344 205.976H70.0304C70.1264 205.144 70.1744 203.992 70.1744 202.52C70.1744 199.736 70.0624 196.568 69.8384 193.016C72.8784 193.112 78.1104 193.16 85.5344 193.16C92.9264 193.16 98.1424 193.112 101.182 193.016ZM140.745 193.976C139.721 194.04 138.969 194.168 138.489 194.36C138.041 194.552 137.737 194.92 137.577 195.464C137.417 196.008 137.337 196.888 137.337 198.104V221.912C137.337 223.128 137.417 224.008 137.577 224.552C137.769 225.096 138.089 225.464 138.537 225.656C138.985 225.848 139.721 225.976 140.745 226.04V227C139.017 226.904 136.329 226.856 132.681 226.856C129.001 226.856 126.169 226.904 124.185 227V226.04C125.209 225.976 125.945 225.848 126.393 225.656C126.873 225.464 127.193 225.096 127.353 224.552C127.513 224.008 127.593 223.128 127.593 221.912V210.392H116.793V221.912C116.793 223.128 116.873 224.008 117.033 224.552C117.225 225.096 117.545 225.464 117.993 225.656C118.441 225.848 119.177 225.976 120.201 226.04V227C118.345 226.904 115.673 226.856 112.185 226.856C108.313 226.856 105.465 226.904 103.641 227V226.04C104.665 225.976 105.401 225.848 105.849 225.656C106.329 225.464 106.649 225.096 106.809 224.552C106.969 224.008 107.049 223.128 107.049 221.912V198.104C107.049 196.888 106.953 196.008 106.761 195.464C106.601 194.92 106.297 194.552 105.849 194.36C105.401 194.168 104.665 194.04 103.641 193.976V193.016C105.465 193.112 108.313 193.16 112.185 193.16C115.641 193.16 118.313 193.112 120.201 193.016V193.976C119.177 194.04 118.425 194.168 117.945 194.36C117.497 194.552 117.193 194.92 117.033 195.464C116.873 196.008 116.793 196.888 116.793 198.104V209.432H127.593V198.104C127.593 196.888 127.497 196.008 127.305 195.464C127.145 194.92 126.841 194.552 126.393 194.36C125.945 194.168 125.209 194.04 124.185 193.976V193.016C126.169 193.112 129.001 193.16 132.681 193.16C136.329 193.16 139.017 193.112 140.745 193.016V193.976ZM185.469 193.976C184.477 194.2 183.741 194.552 183.261 195.032C182.781 195.48 182.461 196.184 182.301 197.144C182.141 198.104 182.061 199.544 182.061 201.464V213.032C182.061 217.64 181.405 221.032 180.093 223.208C179.229 224.648 177.949 225.752 176.253 226.52C174.589 227.288 172.429 227.672 169.773 227.672C165.901 227.672 162.893 226.904 160.749 225.368C159.181 224.248 158.125 222.744 157.581 220.856C157.069 218.968 156.813 216.408 156.813 213.176V198.104C156.813 196.888 156.733 196.008 156.573 195.464C156.413 194.92 156.093 194.552 155.613 194.36C155.165 194.168 154.429 194.04 153.405 193.976V193.016C155.229 193.112 158.045 193.16 161.853 193.16C165.629 193.16 168.493 193.112 170.445 193.016V193.976C169.293 194.04 168.445 194.168 167.901 194.36C167.389 194.552 167.037 194.92 166.845 195.464C166.653 196.008 166.557 196.888 166.557 198.104V217.688C166.557 220.76 167.037 222.92 167.997 224.168C168.957 225.384 170.477 225.992 172.557 225.992C175.597 225.992 177.757 224.92 179.037 222.776C180.317 220.6 180.957 217.528 180.957 213.56V202.424C180.957 200.056 180.861 198.36 180.669 197.336C180.477 196.28 180.045 195.512 179.373 195.032C178.733 194.552 177.645 194.2 176.109 193.976V193.016C177.421 193.112 179.213 193.16 181.485 193.16C183.181 193.16 184.509 193.112 185.469 193.016V193.976ZM200.559 192.344C202.383 192.344 203.855 192.52 204.975 192.872C206.127 193.192 207.247 193.656 208.335 194.264C208.687 194.456 208.991 194.616 209.247 194.744C209.535 194.872 209.775 194.936 209.967 194.936C210.255 194.936 210.479 194.776 210.639 194.456C210.799 194.104 210.927 193.56 211.023 192.824H212.127C211.967 195.128 211.887 199.032 211.887 204.536H210.783C210.655 202.712 210.239 200.968 209.535 199.304C208.831 197.64 207.871 196.28 206.655 195.224C205.439 194.168 204.031 193.64 202.431 193.64C200.959 193.64 199.775 194.04 198.879 194.84C197.983 195.608 197.535 196.696 197.535 198.104C197.535 199.192 197.775 200.136 198.255 200.936C198.735 201.736 199.439 202.52 200.367 203.288C201.295 204.024 202.815 205.128 204.927 206.6C205.119 206.696 205.295 206.808 205.455 206.936C205.647 207.064 205.823 207.192 205.983 207.32C207.743 208.536 209.151 209.624 210.207 210.584C211.263 211.512 212.111 212.6 212.751 213.848C213.423 215.096 213.759 216.536 213.759 218.168C213.759 220.248 213.167 222.008 211.983 223.448C210.831 224.856 209.263 225.912 207.279 226.616C205.295 227.32 203.103 227.672 200.703 227.672C198.751 227.672 197.119 227.512 195.807 227.192C194.527 226.872 193.327 226.44 192.207 225.896C191.503 225.448 190.959 225.224 190.575 225.224C190.287 225.224 190.063 225.4 189.903 225.752C189.743 226.072 189.615 226.6 189.519 227.336H188.415C188.543 225.16 188.607 220.52 188.607 213.416H189.711C189.935 217.224 190.735 220.312 192.111 222.68C193.487 225.048 195.599 226.232 198.447 226.232C200.207 226.232 201.599 225.816 202.623 224.984C203.679 224.152 204.207 223 204.207 221.528C204.207 219.704 203.631 218.152 202.479 216.872C201.359 215.56 199.599 214.104 197.199 212.504C195.279 211.224 193.743 210.104 192.591 209.144C191.439 208.184 190.495 207.08 189.759 205.832C189.023 204.552 188.655 203.08 188.655 201.416C188.655 199.4 189.199 197.72 190.287 196.376C191.375 195 192.815 193.992 194.607 193.352C196.431 192.68 198.415 192.344 200.559 192.344ZM222.844 189.464C224.22 189.464 225.404 190.024 226.396 191.144C227.42 192.264 227.932 193.72 227.932 195.512C227.932 196.728 227.772 198.04 227.452 199.448C227.132 200.856 226.636 202.616 225.964 204.728C225.164 207.384 224.54 209.672 224.092 211.592C223.644 213.48 223.372 215.48 223.276 217.592H222.412C222.316 215.48 222.044 213.48 221.596 211.592C221.148 209.672 220.524 207.384 219.724 204.728C219.052 202.616 218.556 200.856 218.236 199.448C217.916 198.04 217.756 196.728 217.756 195.512C217.756 193.688 218.22 192.232 219.148 191.144C220.108 190.024 221.34 189.464 222.844 189.464ZM222.844 219.416C224.38 219.416 225.548 219.768 226.348 220.472C227.18 221.176 227.596 222.2 227.596 223.544C227.596 224.888 227.18 225.912 226.348 226.616C225.548 227.32 224.38 227.672 222.844 227.672C221.308 227.672 220.124 227.32 219.292 226.616C218.492 225.912 218.092 224.888 218.092 223.544C218.092 222.2 218.492 221.176 219.292 220.472C220.124 219.768 221.308 219.416 222.844 219.416Z" fill="white"/>
</svg>
