<svg width="276" height="91" viewBox="0 0 276 91" fill="none" xmlns="http://www.w3.org/2000/svg">
<path d="M265.778 90.1387H10.2222C4.6 90.1387 0 85.1238 0 78.9944V12.1289C0 5.99953 4.6 0.984619 10.2222 0.984619H265.778C271.4 0.984619 276 5.99953 276 12.1289V78.9944C276 85.1238 271.4 90.1387 265.778 90.1387Z" fill="white"/>
<path d="M265.778 0.984619H10.2222C4.6 0.984619 0 5.99953 0 12.1289V78.9944C0 85.1238 4.6 90.1387 10.2222 90.1387H265.778C271.4 90.1387 276 85.1238 276 78.9944V12.1289C276 5.99953 271.4 0.984619 265.778 0.984619ZM265.778 2.7677C270.513 2.7677 274.364 6.96775 274.364 12.1289V78.9944C274.364 84.1564 270.513 88.3565 265.778 88.3565H10.2222C5.48811 88.3565 1.63556 84.1564 1.63556 78.9944V12.1289C1.63556 6.96775 5.48811 2.7677 10.2222 2.7677H265.778Z" fill="#2B2B2B"/>
<path d="M96.9454 23.8168C96.9454 25.6842 96.4381 27.1713 95.4223 28.2807C94.2684 29.5998 92.7645 30.2598 90.9157 30.2598C89.1452 30.2598 87.6399 29.5911 86.402 28.2519C85.1618 26.9137 84.543 25.2542 84.543 23.2742C84.543 21.2934 85.1618 19.6348 86.402 18.2957C87.6399 16.9574 89.1452 16.2878 90.9157 16.2878C91.7942 16.2878 92.6353 16.4751 93.4338 16.8486C94.2324 17.2231 94.8729 17.7202 95.3521 18.3427L94.2739 19.5189C93.4618 18.4611 92.3437 17.9326 90.9157 17.9326C89.6244 17.9326 88.508 18.4272 87.5657 19.4171C86.6232 20.408 86.1521 21.693 86.1521 23.2742C86.1521 24.8555 86.6232 26.1404 87.5657 27.1314C88.508 28.1213 89.6244 28.6159 90.9157 28.6159C92.2855 28.6159 93.4275 28.1186 94.3418 27.1227C94.9353 26.4739 95.2785 25.5721 95.3703 24.4139H90.9157V22.8075H96.8599C96.9174 23.1568 96.9454 23.492 96.9454 23.8168Z" fill="#2B2B2B"/>
<path d="M96.9428 23.8166H96.7384C96.7367 25.6414 96.2479 27.0588 95.2752 28.1229L95.2729 28.1247L95.2721 28.1265C94.1548 29.4001 92.7188 30.034 90.9131 30.0366C89.1899 30.034 87.7475 29.3932 86.5431 28.0941C85.3414 26.7925 84.7471 25.2035 84.7448 23.2741C84.7471 21.3439 85.3414 19.7558 86.5431 18.455C87.7475 17.1551 89.1899 16.5134 90.9131 16.5107C91.7653 16.5107 92.5767 16.6919 93.3505 17.0532C94.1252 17.4172 94.7371 17.8942 95.193 18.4864L95.3496 18.3427L95.205 18.1851L94.1268 19.3622L94.2713 19.5189L94.4288 19.3762C93.5789 18.266 92.3859 17.7063 90.9131 17.7097C89.574 17.7079 88.396 18.2294 87.4216 19.257C86.4378 20.2878 85.9435 21.645 85.9451 23.2741C85.9435 24.9032 86.4378 26.2604 87.4216 27.2913C88.396 28.3188 89.574 28.8404 90.9131 28.8386C92.3283 28.8413 93.5343 28.3179 94.4838 27.2801C95.118 26.587 95.4774 25.6267 95.5716 24.4329L95.5906 24.1909H91.1176V23.0303H96.8574V22.8074L96.656 22.8466C96.712 23.1845 96.7384 23.5057 96.7384 23.8166H96.9428H97.1473C97.1473 23.4778 97.1184 23.1297 97.0585 22.7675L97.0283 22.5845H90.7087V24.4138V24.6367H95.3678V24.4138L95.1642 24.3946C95.074 25.5162 94.7465 26.3607 94.1947 26.965C93.3162 27.9192 92.2381 28.3901 90.9131 28.3928C89.6697 28.391 88.6148 27.9243 87.7052 26.971C86.8044 26.021 86.3563 24.8083 86.354 23.2741C86.3563 21.74 86.8044 20.5272 87.7052 19.5773C88.6148 18.624 89.6697 18.1572 90.9131 18.1554C92.2956 18.159 93.3395 18.6569 94.1149 19.6626L94.2587 19.849L95.4941 18.5002L95.6266 18.3558L95.506 18.1998C95.0037 17.5469 94.3345 17.0287 93.5118 16.644C92.6877 16.2582 91.818 16.0649 90.9131 16.0649C89.0956 16.0632 87.5271 16.7597 86.2549 18.1381C84.9779 19.5137 84.3343 21.2429 84.3359 23.2741C84.3343 25.3044 84.9779 27.0345 86.2557 28.4111C87.5271 29.7886 89.0956 30.4842 90.9131 30.4824C92.8059 30.4842 94.376 29.7988 95.5675 28.4345L95.4197 28.2805L95.5642 28.4381C96.6233 27.2844 97.1487 25.7259 97.1473 23.8166H96.9428Z" fill="#2B2B2B"/>
<path d="M106.368 18.2321H100.782V22.4725H105.82V24.0795H100.782V28.3199H106.368V29.9629H99.207V16.5891H106.368V18.2321Z" fill="#2B2B2B"/>
<path d="M106.366 18.2305V18.0076H100.575V22.6936H105.613V23.8541L100.575 23.8548V28.5407H106.161V29.7378H99.4089V16.8105H106.161V18.2305H106.366V18.0076V18.2305H106.57V16.5876V16.3647H99V30.1836H106.57V28.3178V28.0949H100.984V24.3006H106.021V22.4707V22.2478H100.984V18.4534H106.57V18.2305H106.366Z" fill="#2B2B2B"/>
<path d="M113.015 29.9629H111.438V18.2321H108.012V16.5891H116.441V18.2321H113.015V29.9629Z" fill="#2B2B2B"/>
<path d="M113.012 29.9607V29.7378H111.64V18.0076H108.214V16.8105H116.234V18.0076H112.808V29.9607H113.012V29.7378V29.9607H113.217V18.4534H116.643V16.5876V16.3647H107.805V18.2305V18.4534H111.231V30.1836H113.012H113.217V29.9607H113.012Z" fill="#2B2B2B"/>
<path d="M122.539 29.9629V16.5891H124.115V29.9629H122.539Z" fill="#2B2B2B"/>
<path d="M122.54 29.9607H122.745V16.8105H123.912V29.7378H122.54V29.9607H122.745H122.54V30.1836H124.116H124.32V16.3647H122.54H122.336V30.1836H122.54V29.9607Z" fill="#2B2B2B"/>
<path d="M131.109 29.9629H129.531V18.2321H126.105V16.5891H134.535V18.2321H131.109V29.9629Z" fill="#2B2B2B"/>
<path d="M131.106 29.9607V29.7378H129.733V18.0076H126.307V16.8105H134.328V18.0076H130.902V29.9607H131.106V29.7378V29.9607H131.31V18.4534H134.737V16.5876V16.3647H125.898V18.2305V18.4534H129.324V30.1836H131.106H131.31V29.9607H131.106Z" fill="#2B2B2B"/>
<path d="M142.658 27.1132C143.566 28.1153 144.677 28.6159 145.991 28.6159C147.305 28.6159 148.416 28.1153 149.323 27.1132C150.231 26.111 150.687 24.8301 150.687 23.2742C150.687 21.7184 150.231 20.4375 149.323 19.4353C148.416 18.4332 147.305 17.9326 145.991 17.9326C144.677 17.9326 143.566 18.4332 142.658 19.4353C141.752 20.4375 141.297 21.7184 141.297 23.2742C141.297 24.8301 141.752 26.111 142.658 27.1132ZM150.489 28.2328C149.283 29.5848 147.783 30.2598 145.991 30.2598C144.197 30.2598 142.698 29.5848 141.495 28.2328C140.288 26.8822 139.688 25.229 139.688 23.2742C139.688 21.3195 140.288 19.666 141.495 18.3157C142.698 16.9634 144.197 16.2878 145.991 16.2878C147.773 16.2878 149.269 16.967 150.481 18.3244C151.691 19.6819 152.296 21.3317 152.296 23.2742C152.296 25.229 151.692 26.8822 150.489 28.2328Z" fill="#2B2B2B"/>
<path d="M142.66 27.113L142.514 27.2697C143.456 28.3119 144.631 28.8413 145.992 28.8386C147.353 28.8413 148.529 28.3119 149.469 27.2697C150.417 26.2265 150.894 24.8769 150.893 23.2741C150.894 21.6713 150.417 20.3217 149.469 19.2786C148.529 18.2364 147.353 17.707 145.992 17.7097C144.631 17.707 143.456 18.2364 142.514 19.2786C141.569 20.3217 141.091 21.6713 141.094 23.2741C141.091 24.8769 141.569 26.2265 142.514 27.2697L142.66 27.113L142.805 26.9563C141.938 25.9941 141.504 24.7838 141.502 23.2741C141.504 21.7645 141.938 20.5542 142.805 19.592C143.68 18.63 144.726 18.1581 145.992 18.1554C147.258 18.1581 148.306 18.63 149.179 19.592C150.048 20.5542 150.481 21.7645 150.483 23.2741C150.481 24.7838 150.048 25.9941 149.179 26.9563C148.306 27.9183 147.258 28.3901 145.992 28.3928C144.726 28.3901 143.68 27.9183 142.805 26.9563L142.66 27.113ZM150.49 28.2326L150.344 28.0776C149.172 29.3871 147.738 30.034 145.992 30.0366C144.246 30.034 142.812 29.3871 141.642 28.0776L141.637 28.0707L141.642 28.0776C140.472 26.7637 139.895 25.1792 139.893 23.2741C139.895 21.3691 140.472 19.7846 141.642 18.4706C142.812 17.1611 144.246 16.5134 145.992 16.5107C147.727 16.5134 149.157 17.1638 150.336 18.4802C151.51 19.8002 152.09 21.3822 152.093 23.2741C152.09 25.1792 151.511 26.7637 150.344 28.0776L150.49 28.2326L150.637 28.3875C151.876 26.9998 152.503 25.2784 152.502 23.2741C152.503 21.2813 151.874 19.5634 150.629 18.1695C149.383 16.7702 147.823 16.0625 145.992 16.0649C144.152 16.0625 142.587 16.7668 141.349 18.1608V18.1599C140.107 19.5485 139.483 21.2699 139.484 23.2741C139.483 25.2784 140.107 26.9998 141.349 28.3884L141.355 28.3946L141.349 28.3875C142.587 29.7814 144.152 30.4842 145.992 30.4824C147.831 30.4842 149.397 29.7814 150.637 28.3875L150.49 28.2326Z" fill="#2B2B2B"/>
<path d="M154.512 29.9629V16.5891H156.43L162.392 26.993H162.46L162.392 24.4157V16.5891H163.969V29.9629H162.324L156.087 19.0548H156.019L156.087 21.633V29.9629H154.512Z" fill="#2B2B2B"/>
<path d="M154.509 29.9607H154.714V16.8105H156.314L162.276 27.2139H162.457H162.667L162.593 24.4104V16.8105H163.762V29.7378H162.435L156.197 18.8303H156.016H155.806L155.88 21.6349V29.7378H154.509V29.9607H154.714H154.509V30.1836H156.084H156.288V21.6277L156.221 19.0472L156.016 19.0532V19.2761H156.084V19.0532L155.911 19.1718L162.208 30.1836H163.966H164.171V16.3647H162.389H162.185V24.4165L162.252 26.997L162.457 26.991V26.7681H162.389V26.991L162.562 26.8726L156.541 16.3647H154.509H154.305V30.1836H154.509V29.9607Z" fill="#2B2B2B"/>
<path d="M218.623 67.8523H222.438V39.9892H218.623V67.8523ZM252.984 50.0261L248.611 62.1062H248.48L243.942 50.0261H239.832L246.638 66.9102L242.758 76.3018H246.738L257.227 50.0261H252.984ZM231.35 64.6876C230.099 64.6876 228.357 64.0067 228.357 62.3213C228.357 60.1707 230.528 59.3462 232.401 59.3462C234.079 59.3462 234.866 59.7405 235.887 60.2788C235.59 62.8593 233.552 64.6876 231.35 64.6876ZM231.81 49.4165C229.048 49.4165 226.188 50.7434 225.004 53.6827L228.39 55.2238C229.113 53.6827 230.461 53.1804 231.875 53.1804C233.848 53.1804 235.854 54.4715 235.887 56.7657V57.0521C235.196 56.6219 233.717 55.9769 231.908 55.9769C228.259 55.9769 224.542 58.1629 224.542 62.2497C224.542 65.9779 227.535 68.3799 230.888 68.3799C233.454 68.3799 234.866 67.1253 235.756 65.6558H235.887V67.8062H239.569V57.1234C239.569 52.1774 236.183 49.4165 231.81 49.4165ZM208.233 53.418H202.807V43.8672H208.233C211.085 43.8672 212.705 46.4415 212.705 48.6425C212.705 50.8018 211.085 53.418 208.233 53.418ZM208.135 39.9892H198.995V67.8523H202.807V57.2959H208.135C212.363 57.2959 216.52 53.9587 216.52 48.6425C216.52 43.3265 212.363 39.9892 208.135 39.9892ZM158.29 64.6927C155.654 64.6927 153.448 62.2872 153.448 58.9831C153.448 55.6443 155.654 53.2022 158.29 53.2022C160.892 53.2022 162.934 55.6443 162.934 58.9831C162.934 62.2872 160.892 64.6927 158.29 64.6927ZM162.67 51.5863H162.538C161.682 50.4734 160.035 49.468 157.96 49.468C153.612 49.468 149.627 53.633 149.627 58.9831C149.627 64.2976 153.612 68.4269 157.96 68.4269C160.035 68.4269 161.682 67.4213 162.538 66.273H162.67V67.6372C162.67 71.2645 160.892 73.2033 158.026 73.2033C155.688 73.2033 154.238 71.3714 153.645 69.8277L150.319 71.3358C151.274 73.8492 153.81 76.9375 158.026 76.9375C162.506 76.9375 166.293 74.0643 166.293 67.0627V50.0426H162.67V51.5863ZM168.928 67.8523H172.749V39.9883H168.928V67.8523ZM178.381 58.6602C178.282 54.9973 180.983 53.1307 182.926 53.1307C184.442 53.1307 185.726 53.956 186.153 55.142L178.381 58.6602ZM190.238 55.5006C189.514 53.3814 187.306 49.468 182.794 49.468C178.315 49.468 174.593 53.3101 174.593 58.9475C174.593 64.2619 178.282 68.4269 183.222 68.4269C187.208 68.4269 189.514 65.7697 190.469 64.226L187.505 62.0712C186.517 63.6514 185.166 64.6927 183.222 64.6927C181.279 64.6927 179.896 63.723 179.006 61.8204L190.633 56.5776L190.238 55.5006ZM97.6081 52.3766V56.3981H106.435C106.171 58.6602 105.48 60.3117 104.426 61.4609C103.142 62.8617 101.132 64.4054 97.6081 64.4054C92.1734 64.4054 87.9248 59.6299 87.9248 53.7053C87.9248 47.7806 92.1734 43.0044 97.6081 43.0044C100.54 43.0044 102.68 44.2615 104.261 45.8774L106.863 43.0409C104.657 40.7424 101.725 38.9829 97.6081 38.9829C90.1641 38.9829 83.9062 45.5901 83.9062 53.7053C83.9062 61.8204 90.1641 68.4269 97.6081 68.4269C101.627 68.4269 104.657 66.9913 107.028 64.2976C109.465 61.6403 110.223 57.9062 110.223 54.8903C110.223 53.956 110.157 53.095 110.025 52.3766H97.6081ZM120.258 64.6927C117.623 64.6927 115.35 62.3228 115.35 58.9475C115.35 55.5362 117.623 53.2022 120.258 53.2022C122.893 53.2022 125.166 55.5362 125.166 58.9475C125.166 62.3228 122.893 64.6927 120.258 64.6927ZM120.258 49.468C115.449 49.468 111.529 53.4536 111.529 58.9475C111.529 64.4054 115.449 68.4269 120.258 68.4269C125.067 68.4269 128.986 64.4054 128.986 58.9475C128.986 53.4536 125.067 49.468 120.258 49.468ZM139.299 64.6927C136.664 64.6927 134.391 62.3228 134.391 58.9475C134.391 55.5362 136.664 53.2022 139.299 53.2022C141.933 53.2022 144.206 55.5362 144.206 58.9475C144.206 62.3228 141.933 64.6927 139.299 64.6927ZM139.299 49.468C134.489 49.468 130.571 53.4536 130.571 58.9475C130.571 64.4054 134.489 68.4269 139.299 68.4269C144.107 68.4269 148.027 64.4054 148.027 58.9475C148.027 53.4536 144.107 49.468 139.299 49.468Z" fill="#2B2B2B"/>
<path d="M21.4887 73.1758L21.3368 73.0173C20.7419 72.3311 20.3906 71.2654 20.3906 69.8856V70.2103V20.9174C20.3906 20.9129 20.3906 20.9096 20.3906 20.906C20.3906 20.9102 20.3906 20.9138 20.3906 20.9183V21.2439C20.3906 19.7497 20.8001 18.6241 21.4862 17.9492L46.8165 45.5634L21.4887 73.1758ZM20.3906 20.9033C20.3906 20.7805 20.3937 20.6613 20.3994 20.5438C20.3937 20.6604 20.3906 20.7805 20.3906 20.9033ZM20.3994 20.5385C20.3994 20.5369 20.3994 20.5351 20.4 20.5333C20.3994 20.5351 20.3994 20.5369 20.3994 20.5385ZM20.4 20.5229C20.4 20.522 20.4 20.5211 20.4 20.5202C20.4 20.5211 20.4 20.522 20.4 20.5229Z" fill="url(#paint0_linear)"/>
<path d="M55.2546 55.0977L55.4472 54.9784L65.4505 48.7821C66.4042 48.191 67.0398 47.4745 67.3569 46.7162C67.0406 47.4745 66.4048 48.1919 65.4505 48.783L55.4472 54.9793L55.2546 55.0977ZM55.2571 54.7711L46.8125 45.5635L55.2563 36.3574L65.4505 42.6712C66.745 43.4731 67.4718 44.5066 67.5933 45.5626C67.5933 45.5635 67.5933 45.5653 67.5933 45.5668C67.4718 46.6204 66.745 47.6548 65.4505 48.4565L55.2571 54.7711Z" fill="url(#paint1_linear)"/>
<path d="M23.2923 74.2285C22.5847 74.2285 21.9673 73.9778 21.4859 73.5041L21.4867 73.5032C21.9681 73.9769 22.5864 74.2285 23.294 74.2285C23.3553 74.2285 23.4177 74.2267 23.4808 74.2234C23.4168 74.2267 23.3537 74.2285 23.2923 74.2285ZM23.2931 73.902C22.5856 73.9029 21.9681 73.6512 21.4867 73.1776V73.1769L46.8145 45.5637L55.259 54.7718L25.5835 73.1542C24.7625 73.6617 23.9846 73.902 23.2931 73.902ZM21.4795 73.4981C21.4348 73.4537 21.3908 73.4067 21.3477 73.3579L21.4795 73.4981Z" fill="url(#paint2_linear)"/>
<path d="M46.8146 45.5645L21.4844 17.95C21.9658 17.4773 22.5824 17.2265 23.2892 17.2265C23.9825 17.2265 24.761 17.4677 25.5837 17.9761L55.2584 36.3582L46.8146 45.5645ZM55.4493 36.1502L25.5837 17.6507C24.761 17.142 23.9825 16.9009 23.2892 16.9009C23.2859 16.9009 23.2837 16.9009 23.2804 16.9009C23.2845 16.9009 23.2876 16.9009 23.2925 16.9009C23.9841 16.9009 24.7618 17.1411 25.5837 17.6498L55.4493 36.1502Z" fill="url(#paint3_linear)"/>
<path d="M23.482 74.2227C24.1248 74.1825 24.8364 73.9414 25.5847 73.4791L55.2578 55.0979L25.5847 73.4791C24.837 73.9423 24.1248 74.1825 23.482 74.2227ZM21.487 73.5034L21.4807 73.4974C21.4829 73.4992 21.4854 73.5016 21.487 73.5034ZM21.3488 73.3572L21.3359 73.3434V73.3425C21.3408 73.3476 21.3447 73.3527 21.3488 73.3572Z" fill="white"/>
<path d="M55.2578 55.0977L55.4504 54.9773L55.2578 55.0977Z" fill="url(#paint4_linear)"/>
<path d="M23.2951 74.2285C22.5875 74.2285 21.9693 73.9769 21.4878 73.5032L21.487 73.5041C21.4854 73.5023 21.4829 73.4999 21.4807 73.4981L21.3488 73.3579C21.3447 73.3534 21.3408 73.3483 21.3359 73.3432L21.4878 73.1776C21.9693 73.6512 22.5867 73.9029 23.2943 73.902C23.9857 73.902 24.7637 73.6617 25.5847 73.1542L55.2602 54.7712L55.4504 54.9785L55.2578 55.0978L25.5847 73.4798C24.8364 73.9421 24.1248 74.1833 23.482 74.2234C23.4188 74.2267 23.3565 74.2285 23.2951 74.2285Z" fill="url(#paint5_linear)"/>
<path d="M21.3368 73.3457C20.7419 72.6594 20.3906 71.5937 20.3906 70.2138V70.2129C20.3906 71.5937 20.7419 72.6585 21.3368 73.3448V73.3457Z" fill="white"/>
<path d="M21.3368 73.3457C20.7419 72.6592 20.3906 71.5942 20.3906 70.213V69.8882C20.3906 71.2685 20.7419 72.3344 21.3368 73.0209L21.4887 73.1794L21.3368 73.3457Z" fill="url(#paint6_linear)"/>
<path d="M21.3359 73.3457L21.4879 73.1775V73.1782L21.3359 73.3457Z" fill="url(#paint7_linear)"/>
<path d="M67.3594 46.7168C67.5166 46.3404 67.5957 45.9538 67.5957 45.567C67.5957 45.5663 67.5957 45.5654 67.5957 45.5654C67.5957 45.9529 67.5166 46.3395 67.3594 46.7168Z" fill="white"/>
<path d="M55.4479 54.9805L55.2578 54.7732L65.4512 48.4575C66.7458 47.6557 67.4726 46.6211 67.594 45.5674C67.594 45.9541 67.5149 46.3407 67.3577 46.717C67.0406 47.4753 66.4049 48.192 65.4512 48.7832L55.4479 54.9805Z" fill="url(#paint8_linear)"/>
<path d="M67.5961 45.5645V45.5636C67.5952 44.3975 66.8805 43.2316 65.4533 42.3468L55.45 36.1494H55.4492L55.45 36.1487L65.4533 42.3459C66.8821 43.2307 67.5977 44.3983 67.5961 45.5645Z" fill="#404040"/>
<path d="M67.5948 45.5605C67.4733 44.5045 66.7466 43.4709 65.452 42.6689L55.2578 36.3548L55.4479 36.1475H55.4488L65.452 42.3442C66.8792 43.2288 67.594 44.3946 67.5948 45.5605Z" fill="url(#paint9_linear)"/>
<path d="M20.3906 20.9082C20.3906 20.9073 20.3906 20.9064 20.3906 20.9055C20.3906 20.9064 20.3906 20.9073 20.3906 20.9082ZM20.3994 20.5459C20.3994 20.5441 20.3994 20.5424 20.3994 20.5406C20.3994 20.5424 20.3994 20.5441 20.3994 20.5459ZM20.4 20.5355C20.4 20.5319 20.4 20.5285 20.4 20.525C20.4 20.5285 20.4 20.5319 20.4 20.5355ZM20.4 20.5223C20.5184 18.2321 21.6604 16.9092 23.2759 16.9014C22.5755 16.9058 21.9655 17.1566 21.4879 17.6259V17.625L21.4821 17.6313C21.4319 17.6808 21.384 17.7331 21.3368 17.7871C20.8001 18.4062 20.4616 19.3336 20.4 20.5223Z" fill="#404040"/>
<path d="M20.3906 21.2441V20.9185C20.3906 20.914 20.3906 20.9105 20.3906 20.9062C20.3906 20.9054 20.3906 20.9045 20.3906 20.9036C20.3906 20.7808 20.3937 20.6606 20.3994 20.5441C20.3994 20.5423 20.3994 20.5405 20.3994 20.5387C20.3994 20.5371 20.3994 20.5354 20.4 20.5336C20.4 20.53 20.4 20.5267 20.4 20.5231C20.4 20.5222 20.4 20.5213 20.4 20.5204C20.4616 19.332 20.8001 18.4048 21.3368 17.7858L21.4862 17.9494C20.8001 18.6243 20.3906 19.7499 20.3906 21.2441ZM21.4821 17.63L21.4879 17.6238C21.4862 17.6265 21.4838 17.6282 21.4821 17.63Z" fill="url(#paint10_linear)"/>
<path d="M55.2594 36.3594L25.5847 17.9771C24.762 17.4687 23.9835 17.2275 23.2902 17.2275C22.5835 17.2275 21.9669 17.4782 21.4854 17.951L21.3359 17.7874C21.3832 17.7335 21.431 17.6811 21.4813 17.6316C21.4829 17.6298 21.4854 17.628 21.487 17.6262C21.9646 17.1571 22.5747 16.9063 23.2751 16.9019C23.2767 16.9019 23.279 16.9019 23.2814 16.9019C23.2847 16.9019 23.287 16.9019 23.2902 16.9019C23.9835 16.9019 24.762 17.143 25.5847 17.6516L55.4504 36.1514L55.4496 36.1521L55.2594 36.3594Z" fill="url(#paint11_linear)"/>
<defs>
<linearGradient id="paint0_linear" x1="44.5705" y1="20.3974" x2="7.30408" y2="54.5808" gradientUnits="userSpaceOnUse">
<stop stop-color="#00A0FF"/>
<stop offset="0.00657445" stop-color="#00A1FF"/>
<stop offset="0.2601" stop-color="#00BEFF"/>
<stop offset="0.5122" stop-color="#00D2FF"/>
<stop offset="0.7604" stop-color="#00DFFF"/>
<stop offset="1" stop-color="#00E3FF"/>
</linearGradient>
<linearGradient id="paint1_linear" x1="69.1706" y1="45.5648" x2="19.7011" y2="45.5648" gradientUnits="userSpaceOnUse">
<stop stop-color="#FFE000"/>
<stop offset="0.4087" stop-color="#FFBD00"/>
<stop offset="0.7754" stop-color="#FFA500"/>
<stop offset="1" stop-color="#FF9C00"/>
</linearGradient>
<linearGradient id="paint2_linear" x1="50.7574" y1="50.6797" x2="0.220029" y2="97.0347" gradientUnits="userSpaceOnUse">
<stop stop-color="#FF3A44"/>
<stop offset="1" stop-color="#C31162"/>
</linearGradient>
<linearGradient id="paint3_linear" x1="14.9191" y1="1.37821" x2="37.4856" y2="22.0776" gradientUnits="userSpaceOnUse">
<stop stop-color="#32A071"/>
<stop offset="0.0685" stop-color="#2DA771"/>
<stop offset="0.4762" stop-color="#15CF74"/>
<stop offset="0.8009" stop-color="#06E775"/>
<stop offset="1" stop-color="#00F076"/>
</linearGradient>
<linearGradient id="paint4_linear" x1="69.1722" y1="45.4753" x2="19.7081" y2="45.4753" gradientUnits="userSpaceOnUse">
<stop stop-color="#CCB300"/>
<stop offset="0.4087" stop-color="#CC9700"/>
<stop offset="0.7754" stop-color="#CC8400"/>
<stop offset="1" stop-color="#CC7D00"/>
</linearGradient>
<linearGradient id="paint5_linear" x1="50.7586" y1="50.6791" x2="0.21999" y2="97.034" gradientUnits="userSpaceOnUse">
<stop stop-color="#CC2E36"/>
<stop offset="1" stop-color="#9C0E4E"/>
</linearGradient>
<linearGradient id="paint6_linear" x1="44.5707" y1="20.3851" x2="7.29405" y2="54.568" gradientUnits="userSpaceOnUse">
<stop stop-color="#008DE0"/>
<stop offset="0.00657445" stop-color="#008DE0"/>
<stop offset="0.2601" stop-color="#00A7E0"/>
<stop offset="0.5122" stop-color="#00B8E0"/>
<stop offset="0.7604" stop-color="#00C4E0"/>
<stop offset="1" stop-color="#00C7E0"/>
</linearGradient>
<linearGradient id="paint7_linear" x1="50.7613" y1="50.4182" x2="-0.310763" y2="96.7287" gradientUnits="userSpaceOnUse">
<stop stop-color="#E0333C"/>
<stop offset="1" stop-color="#AB0F56"/>
</linearGradient>
<linearGradient id="paint8_linear" x1="69.1713" y1="45.5654" x2="19.7018" y2="45.5654" gradientUnits="userSpaceOnUse">
<stop stop-color="#E0C500"/>
<stop offset="0.4087" stop-color="#E0A600"/>
<stop offset="0.7754" stop-color="#E09100"/>
<stop offset="1" stop-color="#E08900"/>
</linearGradient>
<linearGradient id="paint9_linear" x1="69.1721" y1="45.5628" x2="19.7027" y2="45.5628" gradientUnits="userSpaceOnUse">
<stop stop-color="#FFE840"/>
<stop offset="0.4087" stop-color="#FFCE40"/>
<stop offset="0.7754" stop-color="#FFBC40"/>
<stop offset="1" stop-color="#FFB540"/>
</linearGradient>
<linearGradient id="paint10_linear" x1="44.5699" y1="20.3976" x2="7.30301" y2="54.5801" gradientUnits="userSpaceOnUse">
<stop stop-color="#40B8FF"/>
<stop offset="0.00657445" stop-color="#40B9FF"/>
<stop offset="0.2601" stop-color="#40CEFF"/>
<stop offset="0.5122" stop-color="#40DDFF"/>
<stop offset="0.7604" stop-color="#40E7FF"/>
<stop offset="1" stop-color="#40EAFF"/>
</linearGradient>
<linearGradient id="paint11_linear" x1="14.9201" y1="1.37899" x2="37.4869" y2="22.0784" gradientUnits="userSpaceOnUse">
<stop stop-color="#65B895"/>
<stop offset="0.0685" stop-color="#62BD95"/>
<stop offset="0.4762" stop-color="#50DB97"/>
<stop offset="0.8009" stop-color="#44ED98"/>
<stop offset="1" stop-color="#40F498"/>
</linearGradient>
</defs>
</svg>
