<svg width="40" height="40" viewBox="0 0 40 40" fill="none" xmlns="http://www.w3.org/2000/svg">
<path fill-rule="evenodd" clip-rule="evenodd" d="M6.41333 31.6667H5C3.67333 31.6667 2.40167 31.14 1.465 30.2017C0.526667 29.265 0 27.9933 0 26.6667V21.6667C0 9.70833 8.96167 0 20 0C31.0383 0 40 9.70833 40 21.6667V26.6667C40 27.9933 39.4733 29.265 38.535 30.2017C37.5983 31.14 36.3267 31.6667 35 31.6667H33.5867C29.1033 39.3883 22.08 40 20 40C17.92 40 10.8967 39.3883 6.41333 31.6667ZM33.3333 21.8733C32.3317 22.2667 31.2183 21.5733 31.2183 20.545C31.2183 20.0383 31.1817 19.5283 31.13 19.02C28.195 18.5967 25.1 15.81 24.965 12.815C22.7733 16.1567 17.4233 19.765 13.225 19.765C15.035 18.6 16.29 15.1433 16.3967 13.9183C15.4283 15.7383 11.5667 19.145 8.81167 19.73L8.78167 20.545C8.78167 21.5767 7.66667 22.265 6.66667 21.8733V28.1583C7.145 28.585 7.72 28.9317 8.40167 29.1483C8.77667 29.2683 9.08833 29.5217 9.27 29.855C12.9467 36.5983 18.3133 36.6667 20 36.6667C21.5483 36.6667 26.1983 36.6083 29.795 31.385C28.01 32.1067 26.02 32.3917 23.53 32.4733C22.9133 33.4733 21.5633 34.1667 20 34.1667C17.8533 34.1667 16.1117 32.86 16.1117 31.25C16.1117 29.64 17.8533 28.3333 20 28.3333C21.555 28.3333 22.8967 29.0183 23.52 30.0083C26.6867 29.965 30.7467 29.4517 33.3333 25.6V21.8733ZM15 20.8333C16.1433 20.8333 17.0717 21.9533 17.0717 23.3333C17.0717 24.7133 16.1433 25.8333 15 25.8333C13.8567 25.8333 12.9283 24.7133 12.9283 23.3333C12.9283 21.9533 13.8567 20.8333 15 20.8333ZM25 20.8333C26.1433 20.8333 27.0717 21.9533 27.0717 23.3333C27.0717 24.7133 26.1433 25.8333 25 25.8333C23.8567 25.8333 22.9283 24.7133 22.9283 23.3333C22.9283 21.9533 23.8567 20.8333 25 20.8333ZM34.13 18.3333H36.3917C34.965 9.80333 28.1633 3.33333 20 3.33333C11.8367 3.33333 5.035 9.80333 3.60833 18.3333H5.87C6.73667 11.6283 11.555 5.46333 20 5.46333C28.445 5.46333 33.2633 11.6283 34.13 18.3333Z" fill="black"/>
</svg>
