<svg width="40" height="40" viewBox="0 0 40 40" fill="none" xmlns="http://www.w3.org/2000/svg">
<path d="M30.0014 24.9201V27.9201C30.0025 28.1986 29.9455 28.4743 29.8339 28.7294C29.7223 28.9846 29.5587 29.2137 29.3535 29.402C29.1483 29.5902 28.906 29.7336 28.6421 29.8228C28.3783 29.912 28.0988 29.9452 27.8214 29.9201C24.7442 29.5857 21.7884 28.5342 19.1914 26.8501C16.7752 25.3148 14.7267 23.2663 13.1914 20.8501C11.5014 18.2413 10.4496 15.2711 10.1214 12.1801C10.0964 11.9036 10.1293 11.6249 10.2179 11.3617C10.3065 11.0986 10.449 10.8568 10.6362 10.6517C10.8234 10.4466 11.0512 10.2828 11.3052 10.1706C11.5592 10.0584 11.8337 10.0004 12.1114 10.0001H15.1114C15.5967 9.99532 16.0672 10.1672 16.4352 10.4836C16.8031 10.8001 17.0435 11.2395 17.1114 11.7201C17.238 12.6802 17.4728 13.6228 17.8114 14.5301C17.9459 14.888 17.9751 15.277 17.8953 15.651C17.8155 16.0249 17.6303 16.3682 17.3614 16.6401L16.0914 17.9101C17.515 20.4136 19.5879 22.4865 22.0914 23.9101L23.3614 22.6401C23.6333 22.3712 23.9766 22.1859 24.3505 22.1062C24.7245 22.0264 25.1135 22.0556 25.4714 22.1901C26.3787 22.5286 27.3213 22.7635 28.2814 22.8901C28.7672 22.9586 29.2108 23.2033 29.5279 23.5776C29.8451 23.9519 30.0136 24.4297 30.0014 24.9201Z" fill="white"/>
</svg>
