<svg width="78" height="25" viewBox="0 0 78 25" fill="none" xmlns="http://www.w3.org/2000/svg">
<path d="M0.184 15.104C0.184 13.3333 0.546667 11.7653 1.272 10.4C2.01867 9.03467 3.02133 7.97867 4.28 7.232C5.56 6.464 6.97867 6.08 8.536 6.08C9.688 6.08 10.8187 6.336 11.928 6.848C13.0587 7.33867 13.9547 8 14.616 8.832V0.32H18.296V24H14.616V21.344C14.0187 22.1973 13.1867 22.9013 12.12 23.456C11.0747 24.0107 9.86933 24.288 8.504 24.288C6.968 24.288 5.56 23.904 4.28 23.136C3.02133 22.3467 2.01867 21.2587 1.272 19.872C0.546667 18.464 0.184 16.8747 0.184 15.104ZM14.616 15.168C14.616 13.952 14.36 12.896 13.848 12C13.3573 11.104 12.7067 10.4213 11.896 9.952C11.0853 9.48267 10.2107 9.248 9.272 9.248C8.33333 9.248 7.45867 9.48267 6.648 9.952C5.83733 10.4 5.176 11.072 4.664 11.968C4.17333 12.8427 3.928 13.888 3.928 15.104C3.928 16.32 4.17333 17.3867 4.664 18.304C5.176 19.2213 5.83733 19.9253 6.648 20.416C7.48 20.8853 8.35467 21.12 9.272 21.12C10.2107 21.12 11.0853 20.8853 11.896 20.416C12.7067 19.9467 13.3573 19.264 13.848 18.368C14.36 17.4507 14.616 16.384 14.616 15.168ZM29.4875 24.288C28.1008 24.288 26.8528 24.0427 25.7435 23.552C24.6555 23.04 23.7915 22.3573 23.1515 21.504C22.5115 20.6293 22.1702 19.6587 22.1275 18.592H25.9035C25.9675 19.3387 26.3195 19.968 26.9595 20.48C27.6208 20.9707 28.4422 21.216 29.4235 21.216C30.4475 21.216 31.2368 21.024 31.7915 20.64C32.3675 20.2347 32.6555 19.7227 32.6555 19.104C32.6555 18.4427 32.3355 17.952 31.6955 17.632C31.0768 17.312 30.0848 16.96 28.7195 16.576C27.3968 16.2133 26.3195 15.8613 25.4875 15.52C24.6555 15.1787 23.9302 14.656 23.3115 13.952C22.7142 13.248 22.4155 12.32 22.4155 11.168C22.4155 10.2293 22.6928 9.376 23.2475 8.608C23.8022 7.81867 24.5915 7.2 25.6155 6.752C26.6608 6.304 27.8555 6.08 29.1995 6.08C31.2048 6.08 32.8155 6.592 34.0315 7.616C35.2688 8.61867 35.9302 9.99467 36.0155 11.744H32.3675C32.3035 10.9547 31.9835 10.3253 31.4075 9.856C30.8315 9.38667 30.0528 9.152 29.0715 9.152C28.1115 9.152 27.3755 9.33333 26.8635 9.696C26.3515 10.0587 26.0955 10.5387 26.0955 11.136C26.0955 11.6053 26.2662 12 26.6075 12.32C26.9488 12.64 27.3648 12.896 27.8555 13.088C28.3462 13.2587 29.0715 13.4827 30.0315 13.76C31.3115 14.1013 32.3568 14.4533 33.1675 14.816C33.9995 15.1573 34.7142 15.6693 35.3115 16.352C35.9088 17.0347 36.2182 17.9413 36.2395 19.072C36.2395 20.0747 35.9622 20.9707 35.4075 21.76C34.8528 22.5493 34.0635 23.168 33.0395 23.616C32.0368 24.064 30.8528 24.288 29.4875 24.288ZM49.3013 6.08C50.6453 6.08 51.8399 6.368 52.8853 6.944C53.9519 7.52 54.7839 8.37333 55.3813 9.504C55.9999 10.6347 56.3093 12 56.3093 13.6V24H52.6933V14.144C52.6933 12.5653 52.2986 11.36 51.5093 10.528C50.7199 9.67467 49.6426 9.248 48.2773 9.248C46.9119 9.248 45.8239 9.67467 45.0133 10.528C44.2239 11.36 43.8293 12.5653 43.8293 14.144V24H40.1813V0.32H43.8293V8.416C44.4479 7.66933 45.2266 7.09333 46.1653 6.688C47.1253 6.28267 48.1706 6.08 49.3013 6.08ZM64.6105 8.928C65.1438 8.032 65.8478 7.33867 66.7225 6.848C67.6185 6.336 68.6745 6.08 69.8905 6.08V9.856H68.9625C67.5332 9.856 66.4452 10.2187 65.6985 10.944C64.9732 11.6693 64.6105 12.928 64.6105 14.72V24H60.9625V6.368H64.6105V8.928ZM74.7158 24.224C74.0544 24.224 73.4998 24 73.0518 23.552C72.6038 23.104 72.3798 22.5493 72.3798 21.888C72.3798 21.2267 72.6038 20.672 73.0518 20.224C73.4998 19.776 74.0544 19.552 74.7158 19.552C75.3558 19.552 75.8998 19.776 76.3478 20.224C76.7958 20.672 77.0198 21.2267 77.0198 21.888C77.0198 22.5493 76.7958 23.104 76.3478 23.552C75.8998 24 75.3558 24.224 74.7158 24.224Z" fill="#089BC9"/>
</svg>
