<svg width="40" height="40" viewBox="0 0 40 40" fill="none" xmlns="http://www.w3.org/2000/svg">
<rect width="39.6899" height="40" rx="8" fill="white"/>
<path d="M24.8056 10H14.8831C12.1431 10 9.92188 12.2386 9.92188 15V25C9.92188 27.7614 12.1431 30 14.8831 30H24.8056C27.5456 30 29.7668 27.7614 29.7668 25V15C29.7668 12.2386 27.5456 10 24.8056 10Z" stroke="#E31660" stroke-opacity="0.72" stroke-width="2" stroke-linecap="round" stroke-linejoin="round"/>
<path d="M23.813 19.3703C23.9355 20.2025 23.7944 21.0525 23.4099 21.7993C23.0254 22.5461 22.4171 23.1517 21.6714 23.53C20.9257 23.9082 20.0806 24.0399 19.2564 23.9062C18.4322 23.7726 17.6708 23.3804 17.0805 22.7855C16.4902 22.1905 16.101 21.4232 15.9684 20.5925C15.8358 19.7619 15.9664 18.9102 16.3417 18.1587C16.7171 17.4072 17.318 16.794 18.059 16.4065C18.8 16.019 19.6434 15.8769 20.4692 16.0003C21.3115 16.1262 22.0913 16.5218 22.6935 17.1286C23.2956 17.7355 23.6881 18.5214 23.813 19.3703Z" stroke="#E31660" stroke-opacity="0.72" stroke-width="2" stroke-linecap="round" stroke-linejoin="round"/>
<path d="M25.3008 14.5H25.3108" stroke="#E31660" stroke-opacity="0.72" stroke-width="2" stroke-linecap="round" stroke-linejoin="round"/>
</svg>
