<svg width="276" height="91" viewBox="0 0 276 91" fill="none" xmlns="http://www.w3.org/2000/svg">
<g clip-path="url(#clip0)">
<path d="M254.021 0.984665H21.9913C21.1455 0.984665 20.3099 0.984665 19.4664 0.989122C18.7603 0.99358 18.0598 1.00653 17.3469 1.01743C15.7981 1.03504 14.253 1.16671 12.725 1.41129C11.1991 1.6612 9.72096 2.13234 8.34066 2.80878C6.96204 3.49095 5.70236 4.37736 4.60731 5.43585C3.50651 6.49136 2.58891 7.71139 1.8898 9.04903C1.18875 10.384 0.70264 11.8145 0.44826 13.2913C0.191461 14.7661 0.0532754 16.258 0.0349428 17.7534C0.0135389 18.4368 0.0112786 19.1224 0 19.8059V71.3243C0.0112786 72.0163 0.0135389 72.6868 0.0349428 73.3791C0.053281 74.8745 0.191467 76.3662 0.44826 77.841C0.701938 79.3186 1.18807 80.75 1.8898 82.0854C2.5886 83.4187 3.50632 84.6338 4.60731 85.6835C5.6982 86.7467 6.9587 87.6337 8.34066 88.3106C9.72095 88.9889 11.1989 89.4628 12.725 89.7166C14.2533 89.9592 15.7982 90.0909 17.3469 90.1107C18.0598 90.1258 18.7603 90.1345 19.4664 90.1345C20.3099 90.139 21.1456 90.139 21.9913 90.139H254.021C254.85 90.139 255.692 90.139 256.521 90.1345C257.224 90.1345 257.945 90.1258 258.648 90.1107C260.193 90.092 261.735 89.9603 263.261 89.7166C264.792 89.4611 266.275 88.9872 267.662 88.3106C269.042 87.6333 270.302 86.7463 271.392 85.6835C272.49 84.6297 273.41 83.4155 274.117 82.0854C274.813 80.749 275.295 79.3177 275.545 77.841C275.802 76.366 275.945 74.8746 275.973 73.3791C275.982 72.6868 275.982 72.0163 275.982 71.3243C276 70.5145 276 69.7093 276 68.8864V22.2393C276 21.4231 276 20.6134 275.982 19.8059C275.982 19.1224 275.982 18.4368 275.973 17.7533C275.945 16.2577 275.802 14.7662 275.545 13.2912C275.294 11.8153 274.813 10.3849 274.117 9.04894C272.693 6.36779 270.436 4.18536 267.662 2.80858C266.275 2.13379 264.791 1.66277 263.261 1.41109C261.736 1.16543 260.193 1.03372 258.648 1.01712C257.945 1.00624 257.224 0.993179 256.521 0.988833C255.692 0.984375 254.85 0.984375 254.021 0.984375V0.984665Z" fill="#2B2B2B"/>
<path d="M19.4797 88.1894C18.777 88.1894 18.0912 88.1807 17.394 88.1655C15.9496 88.1473 14.5087 88.0258 13.0829 87.802C11.7534 87.5807 10.4655 87.1691 9.2617 86.5808C8.0689 85.9973 6.98097 85.2323 6.03959 84.3149C5.08457 83.4084 4.28948 82.357 3.68582 81.2023C3.07551 80.0402 2.65314 78.7945 2.43342 77.5087C2.19614 76.127 2.06776 74.73 2.04939 73.3296C2.03477 72.8595 2.01562 71.2944 2.01562 71.2944V19.8065C2.01562 19.8065 2.03601 18.2655 2.04951 17.8127C2.0671 16.4145 2.19473 15.0196 2.43129 13.6402C2.65142 12.3508 3.07412 11.1015 3.68476 9.93556C4.2862 8.78172 5.07688 7.72951 6.02614 6.81973C6.97433 5.90131 8.06574 5.13232 9.26058 4.54079C10.4617 3.95434 11.7471 3.54566 13.0739 3.32843C14.5043 3.10235 15.9503 2.98012 17.3997 2.96276L19.4808 2.93555H256.512L258.618 2.96385C260.054 2.98035 261.487 3.10149 262.904 3.32624C264.245 3.5462 265.543 3.95774 266.758 4.54732C269.152 5.73942 271.1 7.62543 272.328 9.941C272.929 11.0989 273.345 12.338 273.563 13.6162C273.802 15.007 273.936 16.4129 273.964 17.8225C273.97 18.4537 273.97 19.1318 273.97 19.8065C273.989 20.6424 273.989 21.4379 273.989 22.24V68.887C273.989 69.6968 273.989 70.4869 273.97 71.2835C273.97 72.0083 273.97 72.6723 273.961 73.3556C273.934 74.7402 273.803 76.1209 273.567 77.4868C273.352 78.7819 272.932 80.0373 272.322 81.209C271.714 82.3511 270.923 83.3934 269.979 84.2975C269.037 85.2198 267.947 85.9894 266.752 86.5766C265.54 87.1694 264.243 87.5825 262.904 87.802C261.479 88.027 260.038 88.1485 258.593 88.1655C257.918 88.1807 257.21 88.1894 256.523 88.1894L254.023 88.1938L19.4797 88.1894Z" fill="white"/>
<path d="M57.655 45.3185C57.6808 43.3839 58.2126 41.4871 59.2008 39.8045C60.189 38.1219 61.6016 36.7082 63.3072 35.6949C62.2237 34.1996 60.7943 32.969 59.1326 32.1009C57.4709 31.2327 55.6226 30.751 53.7345 30.6939C49.7069 30.2854 45.8023 33.0229 43.7498 33.0229C41.6577 33.0229 38.4977 30.7345 35.0949 30.8021C32.8939 30.8708 30.7488 31.4894 28.8687 32.5974C26.9886 33.7054 25.4376 35.2652 24.3667 37.1247C19.7282 44.8856 23.1881 56.2915 27.6316 62.5649C29.8547 65.6368 32.4529 69.0681 35.8526 68.9464C39.1795 68.8131 40.422 66.8964 44.4377 66.8964C48.4162 66.8964 49.5819 68.9464 53.0507 68.8691C56.6205 68.8131 58.8697 65.7836 61.0149 62.6826C62.6122 60.4938 63.8413 58.0747 64.6567 55.5148C62.5828 54.6672 60.8129 53.2483 59.5678 51.4351C58.3227 49.6219 57.6574 47.4946 57.655 45.3185Z" fill="#2B2B2B"/>
<path d="M51.1032 26.566C53.0496 24.3078 54.0085 21.4052 53.7763 18.4746C50.8026 18.7765 48.0558 20.15 46.083 22.3216C45.1185 23.3825 44.3798 24.6167 43.9091 25.9537C43.4384 27.2907 43.245 28.7042 43.3399 30.1135C44.8273 30.1283 46.2987 29.8167 47.6435 29.2022C48.9882 28.5877 50.1711 27.6864 51.1032 26.566Z" fill="#2B2B2B"/>
<path d="M97.5657 61.4723H86.6483L84.0265 68.9533H79.4023L89.7431 41.2754H94.5475L104.888 68.9533H100.185L97.5657 61.4723ZM87.779 58.0202H96.4329L92.1668 45.879H92.0473L87.779 58.0202Z" fill="#2B2B2B"/>
<path d="M127.221 58.8662C127.221 65.1371 123.748 69.166 118.507 69.166C117.179 69.2331 115.858 68.9375 114.696 68.3131C113.534 67.6887 112.578 66.7608 111.936 65.6354H111.837V75.6305H107.551V48.7754H111.7V52.1318H111.779C112.45 51.0118 113.422 50.0887 114.593 49.4605C115.764 48.8323 117.089 48.5226 118.428 48.5643C123.728 48.5643 127.221 52.6128 127.221 58.8662ZM122.815 58.8662C122.815 54.7807 120.631 52.0948 117.297 52.0948C114.022 52.0948 111.819 54.8373 111.819 58.8662C111.819 62.9321 114.022 65.6551 117.297 65.6551C120.631 65.6551 122.815 62.9887 122.815 58.8662H122.815Z" fill="#2B2B2B"/>
<path d="M150.207 58.8662C150.207 65.1371 146.732 69.166 141.491 69.166C140.163 69.2331 138.843 68.9375 137.681 68.3131C136.519 67.6887 135.562 66.7608 134.921 65.6354H134.821V75.6305H130.535V48.7754H134.684V52.1318H134.763C135.434 51.0118 136.407 50.0887 137.578 49.4605C138.748 48.8323 140.073 48.5226 141.412 48.5643C146.712 48.5643 150.207 52.6128 150.207 58.8662ZM145.8 58.8662C145.8 54.7807 143.615 52.0948 140.281 52.0948C137.006 52.0948 134.804 54.8373 134.804 58.8662C134.804 62.9321 137.006 65.6551 140.281 65.6551C143.615 65.6551 145.8 62.9887 145.8 58.8662Z" fill="#2B2B2B"/>
<path d="M165.396 61.2421C165.713 63.9869 168.472 65.789 172.243 65.789C175.856 65.789 178.455 63.9868 178.455 61.5119C178.455 59.3636 176.887 58.0773 173.175 57.1957L169.463 56.3316C164.204 55.104 161.762 52.7271 161.762 48.8701C161.762 44.0946 166.069 40.8145 172.182 40.8145C178.237 40.8145 182.385 44.0946 182.525 48.8701H178.198C177.939 46.108 175.576 44.4407 172.123 44.4407C168.671 44.4407 166.308 46.1276 166.308 48.5828C166.308 50.5396 167.817 51.691 171.509 52.5725L174.664 53.3212C180.541 54.6642 182.98 56.9454 182.98 60.9938C182.98 66.172 178.714 69.4152 171.925 69.4152C165.573 69.4152 161.285 66.2482 161.008 61.2419L165.396 61.2421Z" fill="#2B2B2B"/>
<path d="M192.23 44V48.7755H196.2V52.0557H192.23V63.1803C192.23 64.9086 193.025 65.7139 194.77 65.7139C195.242 65.706 195.712 65.674 196.18 65.6181V68.8787C195.395 69.0204 194.598 69.0846 193.799 69.0702C189.572 69.0702 187.923 67.5357 187.923 63.6221V52.0557H184.887V48.7755H187.923V44H192.23Z" fill="#2B2B2B"/>
<path d="M198.5 58.8682C198.5 52.519 202.37 48.5293 208.404 48.5293C214.458 48.5293 218.31 52.519 218.31 58.8682C218.31 65.2348 214.478 69.2072 208.404 69.2072C202.331 69.2072 198.5 65.2348 198.5 58.8682ZM213.942 58.8682C213.942 54.5128 211.877 51.9422 208.404 51.9422C204.931 51.9422 202.865 54.5324 202.865 58.8682C202.865 63.241 204.931 65.7921 208.404 65.7921C211.877 65.7921 213.942 63.241 213.942 58.8682H213.942Z" fill="#2B2B2B"/>
<path d="M221.844 48.7752H225.932V52.2099H226.031C226.308 51.1372 226.958 50.1892 227.873 49.5252C228.787 48.8613 229.911 48.5219 231.054 48.5641C231.548 48.5624 232.04 48.6142 232.522 48.7186V52.593C231.899 52.4088 231.248 52.3243 230.597 52.3427C229.974 52.3183 229.353 52.4244 228.777 52.6537C228.201 52.883 227.683 53.2301 227.258 53.6712C226.834 54.1123 226.513 54.6368 226.319 55.2089C226.124 55.781 226.06 56.387 226.13 56.9854V68.9546H221.844L221.844 48.7752Z" fill="#2B2B2B"/>
<path d="M252.286 63.0299C251.709 66.6932 248.018 69.2072 243.294 69.2072C237.22 69.2072 233.449 65.274 233.449 58.964C233.449 52.6344 237.24 48.5293 243.114 48.5293C248.892 48.5293 252.525 52.3645 252.525 58.483V59.9021H237.776V60.1524C237.708 60.8951 237.804 61.6432 238.058 62.3472C238.312 63.0512 238.719 63.6948 239.25 64.2354C239.781 64.776 240.426 65.2012 241.14 65.4827C241.854 65.7642 242.623 65.8956 243.394 65.8682C244.406 65.9599 245.423 65.7332 246.292 65.2218C247.161 64.7105 247.836 63.9417 248.216 63.0299L252.286 63.0299ZM237.796 57.0072H248.236C248.275 56.3395 248.17 55.6712 247.928 55.0445C247.687 54.4177 247.314 53.8459 246.833 53.365C246.352 52.8841 245.774 52.5044 245.134 52.2498C244.494 51.9953 243.806 51.8713 243.114 51.8856C242.416 51.8816 241.724 52.0112 241.078 52.267C240.433 52.5227 239.845 52.8995 239.351 53.3757C238.857 53.8518 238.465 54.4179 238.198 55.0412C237.931 55.6645 237.795 56.3327 237.796 57.0072V57.0072Z" fill="#2B2B2B"/>
<path d="M87.2445 20.4428C88.1431 20.3805 89.0448 20.5117 89.8846 20.8269C90.7245 21.1422 91.4814 21.6336 92.1009 22.2657C92.7204 22.8979 93.1869 23.655 93.4669 24.4826C93.747 25.3101 93.8334 26.1873 93.7201 27.051C93.7201 31.2998 91.3439 33.7421 87.2445 33.7421H82.2734V20.4428H87.2445ZM84.4109 31.8613H87.0057C87.6478 31.8984 88.2904 31.7966 88.8868 31.5634C89.4831 31.3303 90.0181 30.9715 90.4528 30.5134C90.8876 30.0552 91.2111 29.5091 91.3999 28.9148C91.5888 28.3206 91.6381 27.6931 91.5443 27.0781C91.6313 26.4656 91.5769 25.842 91.3852 25.2521C91.1935 24.6622 90.8692 24.1206 90.4354 23.6661C90.0017 23.2115 89.4692 22.8553 88.8763 22.623C88.2833 22.3907 87.6446 22.288 87.0057 22.3222H84.4109V31.8613Z" fill="#2B2B2B"/>
<path d="M96.1364 28.7237C96.0712 28.064 96.1492 27.3985 96.3657 26.7697C96.5821 26.141 96.9321 25.5629 97.3933 25.0725C97.8544 24.5821 98.4166 24.1903 99.0436 23.9222C99.6706 23.6541 100.349 23.5156 101.034 23.5156C101.72 23.5156 102.398 23.6541 103.025 23.9222C103.652 24.1903 104.214 24.5821 104.675 25.0725C105.136 25.5629 105.486 26.141 105.703 26.7697C105.919 27.3985 105.997 28.064 105.932 28.7237C105.999 29.384 105.922 30.0504 105.706 30.6802C105.49 31.31 105.14 31.8891 104.679 32.3805C104.217 32.8718 103.655 33.2644 103.027 33.5331C102.4 33.8018 101.721 33.9406 101.034 33.9406C100.348 33.9406 99.669 33.8018 99.0413 33.5331C98.4137 33.2644 97.8512 32.8718 97.3899 32.3805C96.9286 31.8891 96.5788 31.31 96.3629 30.6802C96.1471 30.0504 96.0699 29.384 96.1364 28.7237ZM103.824 28.7237C103.824 26.5479 102.813 25.2755 101.038 25.2755C99.256 25.2755 98.2538 26.5479 98.2538 28.7237C98.2538 30.9169 99.2561 32.1794 101.038 32.1794C102.813 32.1794 103.824 30.9081 103.824 28.7237H103.824Z" fill="#2B2B2B"/>
<path d="M118.951 33.7445H116.825L114.679 26.3519H114.516L112.379 33.7445H110.273L107.41 23.707H109.489L111.35 31.3662H111.503L113.638 23.707H115.604L117.74 31.3662H117.902L119.753 23.707H121.803L118.951 33.7445Z" fill="#2B2B2B"/>
<path d="M124.211 23.7075H126.184V25.3021H126.337C126.597 24.7294 127.035 24.2493 127.591 23.9287C128.146 23.6082 128.792 23.4631 129.437 23.5138C129.942 23.4771 130.449 23.5507 130.921 23.7292C131.393 23.9078 131.817 24.1867 132.163 24.5452C132.508 24.9037 132.765 25.3328 132.916 25.8005C133.066 26.2682 133.105 26.7626 133.031 27.2471V33.7449H130.982V27.7445C130.982 26.1315 130.256 25.3293 128.741 25.3293C128.397 25.3139 128.055 25.3703 127.736 25.4947C127.418 25.6192 127.131 25.8087 126.896 26.0503C126.66 26.2919 126.481 26.5799 126.372 26.8945C126.262 27.2091 126.224 27.5429 126.261 27.873V33.745H124.211L124.211 23.7075Z" fill="#2B2B2B"/>
<path d="M136.297 19.7891H138.347V33.7434H136.297V19.7891Z" fill="#2B2B2B"/>
<path d="M141.195 28.7199C141.13 28.0603 141.208 27.3947 141.424 26.7659C141.641 26.1371 141.991 25.559 142.452 25.0686C142.913 24.5782 143.475 24.1864 144.103 23.9183C144.73 23.6502 145.408 23.5117 146.093 23.5117C146.779 23.5117 147.457 23.6502 148.084 23.9183C148.711 24.1864 149.273 24.5782 149.735 25.0686C150.196 25.559 150.546 26.1371 150.762 26.7659C150.979 27.3947 151.057 28.0603 150.992 28.7199C151.058 29.3803 150.981 30.0467 150.765 30.6765C150.549 31.3063 150.199 31.8854 149.738 32.3767C149.277 32.8681 148.714 33.2607 148.086 33.5293C147.459 33.798 146.78 33.9368 146.093 33.9368C145.407 33.9368 144.728 33.798 144.1 33.5293C143.473 33.2607 142.91 32.8681 142.449 32.3767C141.987 31.8854 141.638 31.3063 141.422 30.6765C141.206 30.0467 141.129 29.3803 141.195 28.7199ZM148.882 28.7199C148.882 26.5442 147.871 25.2718 146.096 25.2718C144.315 25.2718 143.312 26.5442 143.312 28.72C143.312 30.9131 144.315 32.1757 146.096 32.1757C147.871 32.1757 148.882 30.9044 148.882 28.7199H148.882Z" fill="#2B2B2B"/>
<path d="M153.152 30.9082C153.152 29.1014 154.544 28.0598 157.015 27.9118L159.828 27.7551V26.8887C159.828 25.8285 159.103 25.2299 157.702 25.2299C156.558 25.2299 155.765 25.6359 155.538 26.3455H153.553C153.763 24.6215 155.441 23.5156 157.797 23.5156C160.401 23.5156 161.869 24.7684 161.869 26.8887V33.7469H159.896V32.3363H159.734C159.405 32.8423 158.942 33.2548 158.394 33.5316C157.846 33.8085 157.232 33.9399 156.614 33.9122C156.178 33.9561 155.738 33.9111 155.321 33.7803C154.904 33.6494 154.52 33.4356 154.194 33.1526C153.868 32.8695 153.606 32.5236 153.427 32.137C153.248 31.7505 153.154 31.3319 153.152 30.9082ZM159.828 30.0505V29.2114L157.292 29.3681C155.862 29.4606 155.213 29.9308 155.213 30.8157C155.213 31.7191 156.024 32.2448 157.139 32.2448C157.466 32.2768 157.796 32.2449 158.11 32.1511C158.423 32.0572 158.714 31.9034 158.965 31.6987C159.216 31.4939 159.422 31.2425 159.57 30.9594C159.718 30.6763 159.806 30.3672 159.828 30.0505Z" fill="#2B2B2B"/>
<path d="M164.562 28.7209C164.562 25.5495 166.25 23.5405 168.874 23.5405C169.523 23.5116 170.167 23.6618 170.731 23.9736C171.295 24.2854 171.755 24.7459 172.058 25.3013H172.212V19.7891H174.261V33.7434H172.297V32.1577H172.135C171.808 32.7093 171.332 33.1641 170.757 33.4727C170.182 33.7814 169.531 33.9322 168.874 33.9088C166.232 33.9089 164.562 31.8998 164.562 28.7209ZM166.68 28.7209C166.68 30.8496 167.718 32.1305 169.455 32.1305C171.182 32.1305 172.25 30.8311 172.25 28.7296C172.25 26.6378 171.171 25.3199 169.455 25.3199C167.729 25.3199 166.68 26.6095 166.68 28.7209H166.68Z" fill="#2B2B2B"/>
<path d="M182.742 28.7237C182.677 28.064 182.755 27.3985 182.971 26.7697C183.188 26.141 183.538 25.5629 183.999 25.0725C184.46 24.5821 185.022 24.1903 185.649 23.9222C186.276 23.6541 186.954 23.5156 187.64 23.5156C188.325 23.5156 189.003 23.6541 189.631 23.9222C190.258 24.1903 190.82 24.5821 191.281 25.0725C191.742 25.5629 192.092 26.141 192.308 26.7697C192.525 27.3985 192.603 28.064 192.538 28.7237C192.604 29.384 192.527 30.0504 192.311 30.6802C192.095 31.31 191.745 31.8891 191.284 32.3805C190.823 32.8718 190.26 33.2644 189.633 33.5331C189.005 33.8018 188.326 33.9406 187.64 33.9406C186.953 33.9406 186.274 33.8018 185.647 33.5331C185.019 33.2644 184.457 32.8718 183.995 32.3805C183.534 31.8891 183.184 31.31 182.968 30.6802C182.753 30.0504 182.675 29.384 182.742 28.7237ZM190.429 28.7237C190.429 26.5479 189.418 25.2755 187.643 25.2755C185.862 25.2755 184.859 26.5479 184.859 28.7237C184.859 30.9169 185.862 32.1794 187.643 32.1794C189.418 32.1794 190.429 30.9081 190.429 28.7237Z" fill="#2B2B2B"/>
<path d="M195.285 23.7075H197.258V25.3021H197.411C197.671 24.7294 198.109 24.2493 198.665 23.9287C199.221 23.6082 199.866 23.4631 200.511 23.5138C201.016 23.4771 201.523 23.5507 201.995 23.7292C202.467 23.9078 202.892 24.1867 203.237 24.5452C203.582 24.9037 203.839 25.3328 203.99 25.8005C204.14 26.2682 204.18 26.7626 204.106 27.2471V33.7449H202.056V27.7445C202.056 26.1315 201.331 25.3293 199.815 25.3293C199.472 25.3139 199.129 25.3703 198.811 25.4947C198.492 25.6192 198.205 25.8087 197.97 26.0503C197.734 26.2919 197.556 26.5799 197.446 26.8945C197.336 27.2091 197.298 27.5429 197.335 27.873V33.745H195.285V23.7075Z" fill="#2B2B2B"/>
<path d="M215.689 21.207V23.7515H217.939V25.4199H215.689V30.5806C215.689 31.632 216.137 32.0923 217.158 32.0923C217.419 32.0915 217.68 32.0762 217.939 32.0466V33.6965C217.571 33.7601 217.198 33.7939 216.824 33.7977C214.545 33.7977 213.637 33.0228 213.637 31.0878V25.4198H211.988V23.7514H213.637V21.207H215.689Z" fill="#2B2B2B"/>
<path d="M220.738 19.7891H222.77V25.3199H222.932C223.205 24.7419 223.655 24.2591 224.222 23.9374C224.788 23.6157 225.444 23.4706 226.099 23.522C226.602 23.4955 227.104 23.5766 227.571 23.7595C228.037 23.9424 228.456 24.2225 228.798 24.5798C229.14 24.9372 229.395 25.363 229.547 25.8269C229.699 26.2908 229.743 26.7814 229.676 27.2636V33.7434H227.624V27.7522C227.624 26.1491 226.851 25.3372 225.403 25.3372C225.051 25.3093 224.696 25.3561 224.365 25.4744C224.033 25.5926 223.732 25.7795 223.483 26.0218C223.234 26.2642 223.043 26.5562 222.923 26.8775C222.803 27.1987 222.757 27.5415 222.788 27.8817V33.7433H220.738L220.738 19.7891Z" fill="#2B2B2B"/>
<path d="M241.627 31.0329C241.349 31.9503 240.746 32.7438 239.923 33.2747C239.1 33.8055 238.111 34.0399 237.127 33.9368C236.443 33.9543 235.763 33.8276 235.134 33.5657C234.506 33.3037 233.944 32.9126 233.487 32.4197C233.031 31.9268 232.691 31.3437 232.491 30.7111C232.291 30.0784 232.236 29.4113 232.329 28.7559C232.238 28.0986 232.294 27.43 232.494 26.7955C232.693 26.1609 233.032 25.5752 233.486 25.0779C233.94 24.5807 234.499 24.1835 235.126 23.9133C235.752 23.6431 236.432 23.5062 237.118 23.5119C240.008 23.5119 241.751 25.42 241.751 28.5719V29.2632H234.417V29.3742C234.385 29.7425 234.433 30.1133 234.558 30.4627C234.683 30.8121 234.882 31.1325 235.142 31.4032C235.403 31.6739 235.719 31.8891 236.07 32.0349C236.422 32.1806 236.801 32.2538 237.183 32.2497C237.674 32.3066 238.17 32.2213 238.61 32.0046C239.05 31.7879 239.414 31.4497 239.654 31.0329L241.627 31.0329ZM234.417 27.7981H239.663C239.689 27.4612 239.642 27.1229 239.524 26.8047C239.407 26.4866 239.222 26.1957 238.981 25.9509C238.74 25.706 238.449 25.5125 238.126 25.3828C237.803 25.2531 237.456 25.1901 237.107 25.1979C236.752 25.1936 236.4 25.2579 236.072 25.3871C235.744 25.5162 235.445 25.7076 235.195 25.9499C234.944 26.1923 234.746 26.4806 234.613 26.7981C234.479 27.1155 234.413 27.4555 234.417 27.7981H234.417Z" fill="#2B2B2B"/>
</g>
<defs>
<clipPath id="clip0">
<rect width="276" height="89.1543" fill="white" transform="translate(0 0.984375)"/>
</clipPath>
</defs>
</svg>
