<svg width="40" height="40" viewBox="0 0 40 40" fill="none" xmlns="http://www.w3.org/2000/svg">
<rect width="40" height="40" rx="8" fill="white"/>
<path d="M31 11.0003C30.0424 11.6758 28.9821 12.1924 27.86 12.5303C27.2577 11.8378 26.4573 11.347 25.567 11.1242C24.6767 10.9015 23.7395 10.9575 22.8821 11.2847C22.0247 11.612 21.2884 12.1947 20.773 12.954C20.2575 13.7133 19.9877 14.6126 20 15.5303V16.5303C18.2426 16.5759 16.5013 16.1861 14.931 15.3957C13.3607 14.6054 12.0103 13.4389 11 12.0003C11 12.0003 7 21.0003 16 25.0003C13.9405 26.3983 11.4872 27.0992 9 27.0003C18 32.0003 29 27.0003 29 15.5003C28.9991 15.2217 28.9723 14.9439 28.92 14.6703C29.9406 13.6638 30.6608 12.393 31 11.0003Z" stroke="#089BC9" stroke-width="2" stroke-linecap="round" stroke-linejoin="round"/>
</svg>
