<svg width="35" height="33" viewBox="0 0 35 33" fill="none" xmlns="http://www.w3.org/2000/svg">
<path d="M4.29747 19.1055V25.6993C4.29747 29.3654 7.5379 32.4631 11.3734 32.4631H14.0122C15.0183 32.4631 15.8336 31.6477 15.8336 30.6416V19.1055H20.0972L20.1852 30.6556C20.1932 31.6563 21.0062 32.4631 22.0067 32.4631H24.1961C27.9551 32.4631 31.0128 29.4286 31.0128 25.6993V19.1055H33.1785C33.9151 19.1055 34.5798 18.6616 34.861 17.981C35.1433 17.3004 34.9873 16.5171 34.4664 15.9962L20.0765 1.60386C19.3886 0.915985 18.4736 0.537109 17.5015 0.537109C16.5277 0.537109 15.6133 0.916543 14.9247 1.60452L9.13779 7.39148C9.04916 6.13585 8.01266 5.14066 6.73404 5.14066H6.71886C5.3813 5.14066 4.29747 6.22449 4.29747 7.56149V11.8268C4.29747 11.9592 4.31567 12.077 4.33632 12.1935L0.53361 15.9962C0.012628 16.5172 -0.143432 17.3004 0.138994 17.981C0.420751 18.6616 1.08563 19.1055 1.82205 19.1055H4.29747Z" fill="#089BC9"/>
</svg>
